/* XPM */
static char * big_brick_3_xpm[] = {
"48 64 5 1",
" 	c #7F7F7F",
".	c #8A8A8A",
"+	c #727272",
"@	c #4A4A4A",
"#	c #636363",
"       .               .               .        ",
"++++++ .@+++++++++++++ .@+++++++++++++ .@+++++++",
"++++++ .@+++++++++++++ .@+++++++++++++ .@+++++++",
"++++++ .@+++++++++++++ .@+++++++++++++ .@+++++++",
"++++++ .@+++++++++++++ .@+++++++++++++ .@+++++++",
"++++++ .@+++++++++++++ .@+++++++++++++ .@+++++++",
"@@@@@@ .@@@@@@@@@@@@@@ .@@@@@@@@@@@@@@ .@@@@@@@@",
"#######.###############.###############.########",
"            .               .               .   ",
"+++++++++++ .@+++++++++++++ .@+++++++++++++ .@++",
"+++++++++++ .@+++++++++++++ .@+++++++++++++ .@++",
"+++++++++++ .@+++++++++++++ .@+++++++++++++ .@++",
"+++++++++++ .@+++++++++++++ .@+++++++++++++ .@++",
"+++++++++++ .@+++++++++++++ .@+++++++++++++ .@++",
"@@@@@@@@@@@ .@@@@@@@@@@@@@@ .@@@@@@@@@@@@@@ .@@@",
"############.###############.###############.###",
"       .               .               .        ",
"++++++ .@+++++++++++++ .@+++++++++++++ .@+++++++",
"++++++ .@+++++++++++++ .@+++++++++++++ .@+++++++",
"++++++ .@+++++++++++++ .@+++++++++++++ .@+++++++",
"++++++ .@+++++++++++++ .@+++++++++++++ .@+++++++",
"++++++ .@+++++++++++++ .@+++++++++++++ .@+++++++",
"@@@@@@ .@@@@@@@@@@@@@@ .@@@@@@@@@@@@@@ .@@@@@@@@",
"#######.###############.###############.########",
"            .               .               .   ",
"+++++++++++ .@+++++++++++++ .@+++++++++++++ .@++",
"+++++++++++ .@+++++++++++++ .@+++++++++++++ .@++",
"+++++++++++ .@+++++++++++++ .@+++++++++++++ .@++",
"+++++++++++ .@+++++++++++++ .@+++++++++++++ .@++",
"+++++++++++ .@+++++++++++++ .@+++++++++++++ .@++",
"@@@@@@@@@@@ .@@@@@@@@@@@@@@ .@@@@@@@@@@@@@@ .@@@",
"############.###############.###############.###",
"       .               .               .        ",
"++++++ .@+++++++++++++ .@+++++++++++++ .@+++++++",
"++++++ .@+++++++++++++ .@+++++++++++++ .@+++++++",
"++++++ .@+++++++++++++ .@+++++++++++++ .@+++++++",
"++++++ .@+++++++++++++ .@+++++++++++++ .@+++++++",
"++++++ .@+++++++++++++ .@+++++++++++++ .@+++++++",
"@@@@@@ .@@@@@@@@@@@@@@ .@@@@@@@@@@@@@@ .@@@@@@@@",
"#######.###############.###############.########",
"            .               .               .   ",
"+++++++++++ .@+++++++++++++ .@+++++++++++++ .@++",
"+++++++++++ .@+++++++++++++ .@+++++++++++++ .@++",
"+++++++++++ .@+++++++++++++ .@+++++++++++++ .@++",
"+++++++++++ .@+++++++++++++ .@+++++++++++++ .@++",
"+++++++++++ .@+++++++++++++ .@+++++++++++++ .@++",
"@@@@@@@@@@@ .@@@@@@@@@@@@@@ .@@@@@@@@@@@@@@ .@@@",
"############.###############.###############.###",
"       .               .               .        ",
"++++++ .@+++++++++++++ .@+++++++++++++ .@+++++++",
"++++++ .@+++++++++++++ .@+++++++++++++ .@+++++++",
"++++++ .@+++++++++++++ .@+++++++++++++ .@+++++++",
"++++++ .@+++++++++++++ .@+++++++++++++ .@+++++++",
"++++++ .@+++++++++++++ .@+++++++++++++ .@+++++++",
"@@@@@@ .@@@@@@@@@@@@@@ .@@@@@@@@@@@@@@ .@@@@@@@@",
"#######.###############.###############.########",
"            .               .               .   ",
"+++++++++++ .@+++++++++++++ .@+++++++++++++ .@++",
"+++++++++++ .@+++++++++++++ .@+++++++++++++ .@++",
"+++++++++++ .@+++++++++++++ .@+++++++++++++ .@++",
"+++++++++++ .@+++++++++++++ .@+++++++++++++ .@++",
"+++++++++++ .@+++++++++++++ .@+++++++++++++ .@++",
"@@@@@@@@@@@ .@@@@@@@@@@@@@@ .@@@@@@@@@@@@@@ .@@@",
"############.###############.###############.###"};
