/* XPM */
static char * big_gray_brick_xpm[] = {
"48 64 5 1",
" 	c #C0CBDC",
".	c #8B9BB5",
"+	c #5A6988",
"@	c #262B44",
"#	c #5B6986",
"       .+              .+              .+       ",
"++++++ .@+++++++++++++ .@+++++++++++++ .@+++++++",
"++++++ .@+++++++++++++ .@+++++++++++++ .@+++++++",
"++++++ .@+++++++++++++ .@+++++++++++++ .@+++++++",
"++++++ .@+++++++++++++ .@+++++++++++++ .@+++++++",
"++++++ .@+++++++++++++ .@+++++++++++++ .@+++++++",
"@@@@@@+.@@@@@@@@@@@@@@+.@@@@@@@@@@@@@@+.@@@@@@@@",
"#######.###############.###############.########",
"            .+              .+              .+  ",
"+++++++++++ .@+++++++++++++ .@+++++++++++++ .@++",
"+++++++++++ .@+++++++++++++ .@+++++++++++++ .@++",
"+++++++++++ .@+++++++++++++ .@+++++++++++++ .@++",
"+++++++++++ .@+++++++++++++ .@+++++++++++++ .@++",
"+++++++++++ .@+++++++++++++ .@+++++++++++++ .@++",
"@@@@@@@@@@@+.@@@@@@@@@@@@@@+.@@@@@@@@@@@@@@+.@@@",
"############.###############.###############.###",
"       .+              .+              .+       ",
"++++++ .@+++++++++++++ .@+++++++++++++ .@+++++++",
"++++++ .@+++++++++++++ .@+++++++++++++ .@+++++++",
"++++++ .@+++++++++++++ .@+++++++++++++ .@+++++++",
"++++++ .@+++++++++++++ .@+++++++++++++ .@+++++++",
"++++++ .@+++++++++++++ .@+++++++++++++ .@+++++++",
"@@@@@@+.@@@@@@@@@@@@@@+.@@@@@@@@@@@@@@+.@@@@@@@@",
"#######.###############.###############.########",
"            .+              .+              .+  ",
"+++++++++++ .@+++++++++++++ .@+++++++++++++ .@++",
"+++++++++++ .@+++++++++++++ .@+++++++++++++ .@++",
"+++++++++++ .@+++++++++++++ .@+++++++++++++ .@++",
"+++++++++++ .@+++++++++++++ .@+++++++++++++ .@++",
"+++++++++++ .@+++++++++++++ .@+++++++++++++ .@++",
"@@@@@@@@@@@+.@@@@@@@@@@@@@@+.@@@@@@@@@@@@@@+.@@@",
"############.###############.###############.###",
"       .+              .+              .+       ",
"++++++ .@+++++++++++++ .@+++++++++++++ .@+++++++",
"++++++ .@+++++++++++++ .@+++++++++++++ .@+++++++",
"++++++ .@+++++++++++++ .@+++++++++++++ .@+++++++",
"++++++ .@+++++++++++++ .@+++++++++++++ .@+++++++",
"++++++ .@+++++++++++++ .@+++++++++++++ .@+++++++",
"@@@@@@+.@@@@@@@@@@@@@@+.@@@@@@@@@@@@@@+.@@@@@@@@",
"#######.###############.###############.########",
"            .+              .+              .+  ",
"+++++++++++ .@+++++++++++++ .@+++++++++++++ .@++",
"+++++++++++ .@+++++++++++++ .@+++++++++++++ .@++",
"+++++++++++ .@+++++++++++++ .@+++++++++++++ .@++",
"+++++++++++ .@+++++++++++++ .@+++++++++++++ .@++",
"+++++++++++ .@+++++++++++++ .@+++++++++++++ .@++",
"@@@@@@@@@@@+.@@@@@@@@@@@@@@+.@@@@@@@@@@@@@@+.@@@",
"############.###############.###############.###",
"       .+              .+              .+       ",
"++++++ .@+++++++++++++ .@+++++++++++++ .@+++++++",
"++++++ .@+++++++++++++ .@+++++++++++++ .@+++++++",
"++++++ .@+++++++++++++ .@+++++++++++++ .@+++++++",
"++++++ .@+++++++++++++ .@+++++++++++++ .@+++++++",
"++++++ .@+++++++++++++ .@+++++++++++++ .@+++++++",
"@@@@@@+.@@@@@@@@@@@@@@+.@@@@@@@@@@@@@@+.@@@@@@@@",
"#######.###############.###############.########",
"            .+              .+              .+  ",
"+++++++++++ .@+++++++++++++ .@+++++++++++++ .@++",
"+++++++++++ .@+++++++++++++ .@+++++++++++++ .@++",
"+++++++++++ .@+++++++++++++ .@+++++++++++++ .@++",
"+++++++++++ .@+++++++++++++ .@+++++++++++++ .@++",
"+++++++++++ .@+++++++++++++ .@+++++++++++++ .@++",
"@@@@@@@@@@@+.@@@@@@@@@@@@@@+.@@@@@@@@@@@@@@+.@@@",
"############.###############.###############.###"};
