/* XPM */
static char * big_brick_6_xpm[] = {
"48 64 4 1",
" 	c #FFFFFF",
".	c #C2C7CE",
"+	c #838C98",
"@	c #38464D",
"       .+              .+              .+       ",
"++++++ .@+++++++++++++ .@+++++++++++++ .@+++++++",
"++++++ .@+++++++++++++ .@+++++++++++++ .@+++++++",
"++++++ .@+++++++++++++ .@+++++++++++++ .@+++++++",
"++++++ .@+++++++++++++ .@+++++++++++++ .@+++++++",
"++++++ .@+++++++++++++ .@+++++++++++++ .@+++++++",
"@@@@@@+.@@@@@@@@@@@@@@+.@@@@@@@@@@@@@@+.@@@@@@@@",
"+++++++.+++++++++++++++.+++++++++++++++.++++++++",
"            .+              .+              .+  ",
"+++++++++++ .@+++++++++++++ .@+++++++++++++ .@++",
"+++++++++++ .@+++++++++++++ .@+++++++++++++ .@++",
"+++++++++++ .@+++++++++++++ .@+++++++++++++ .@++",
"+++++++++++ .@+++++++++++++ .@+++++++++++++ .@++",
"+++++++++++ .@+++++++++++++ .@+++++++++++++ .@++",
"@@@@@@@@@@@+.@@@@@@@@@@@@@@+.@@@@@@@@@@@@@@+.@@@",
"++++++++++++.+++++++++++++++.+++++++++++++++.+++",
"       .+              .+              .+       ",
"++++++ .@+++++++++++++ .@+++++++++++++ .@+++++++",
"++++++ .@+++++++++++++ .@+++++++++++++ .@+++++++",
"++++++ .@+++++++++++++ .@+++++++++++++ .@+++++++",
"++++++ .@+++++++++++++ .@+++++++++++++ .@+++++++",
"++++++ .@+++++++++++++ .@+++++++++++++ .@+++++++",
"@@@@@@+.@@@@@@@@@@@@@@+.@@@@@@@@@@@@@@+.@@@@@@@@",
"+++++++.+++++++++++++++.+++++++++++++++.++++++++",
"            .+              .+              .+  ",
"+++++++++++ .@+++++++++++++ .@+++++++++++++ .@++",
"+++++++++++ .@+++++++++++++ .@+++++++++++++ .@++",
"+++++++++++ .@+++++++++++++ .@+++++++++++++ .@++",
"+++++++++++ .@+++++++++++++ .@+++++++++++++ .@++",
"+++++++++++ .@+++++++++++++ .@+++++++++++++ .@++",
"@@@@@@@@@@@+.@@@@@@@@@@@@@@+.@@@@@@@@@@@@@@+.@@@",
"++++++++++++.+++++++++++++++.+++++++++++++++.+++",
"       .+              .+              .+       ",
"++++++ .@+++++++++++++ .@+++++++++++++ .@+++++++",
"++++++ .@+++++++++++++ .@+++++++++++++ .@+++++++",
"++++++ .@+++++++++++++ .@+++++++++++++ .@+++++++",
"++++++ .@+++++++++++++ .@+++++++++++++ .@+++++++",
"++++++ .@+++++++++++++ .@+++++++++++++ .@+++++++",
"@@@@@@+.@@@@@@@@@@@@@@+.@@@@@@@@@@@@@@+.@@@@@@@@",
"+++++++.+++++++++++++++.+++++++++++++++.++++++++",
"            .+              .+              .+  ",
"+++++++++++ .@+++++++++++++ .@+++++++++++++ .@++",
"+++++++++++ .@+++++++++++++ .@+++++++++++++ .@++",
"+++++++++++ .@+++++++++++++ .@+++++++++++++ .@++",
"+++++++++++ .@+++++++++++++ .@+++++++++++++ .@++",
"+++++++++++ .@+++++++++++++ .@+++++++++++++ .@++",
"@@@@@@@@@@@+.@@@@@@@@@@@@@@+.@@@@@@@@@@@@@@+.@@@",
"++++++++++++.+++++++++++++++.+++++++++++++++.+++",
"       .+              .+              .+       ",
"++++++ .@+++++++++++++ .@+++++++++++++ .@+++++++",
"++++++ .@+++++++++++++ .@+++++++++++++ .@+++++++",
"++++++ .@+++++++++++++ .@+++++++++++++ .@+++++++",
"++++++ .@+++++++++++++ .@+++++++++++++ .@+++++++",
"++++++ .@+++++++++++++ .@+++++++++++++ .@+++++++",
"@@@@@@+.@@@@@@@@@@@@@@+.@@@@@@@@@@@@@@+.@@@@@@@@",
"+++++++.+++++++++++++++.+++++++++++++++.++++++++",
"            .+              .+              .+  ",
"+++++++++++ .@+++++++++++++ .@+++++++++++++ .@++",
"+++++++++++ .@+++++++++++++ .@+++++++++++++ .@++",
"+++++++++++ .@+++++++++++++ .@+++++++++++++ .@++",
"+++++++++++ .@+++++++++++++ .@+++++++++++++ .@++",
"+++++++++++ .@+++++++++++++ .@+++++++++++++ .@++",
"@@@@@@@@@@@+.@@@@@@@@@@@@@@+.@@@@@@@@@@@@@@+.@@@",
"++++++++++++.+++++++++++++++.+++++++++++++++.+++"};
