/* XPM */
static char * brick_5_xpm[] = {
"48 64 11 1",
" 	c #8E8E8E",
".	c #898989",
"+	c #515151",
"@	c #7D7D7D",
"#	c #595959",
"$	c #717171",
"%	c #656565",
"&	c #797979",
"*	c #757575",
"=	c #3B3B3B",
"-	c #6A6A6A",
" .. +.   ... .   .. +.   ... .   .. +.   ... .  ",
"@@@.#$$$@@@@@@@@@@@.#$$$@@@@@@@@@@@.#$$$@@@@@@@@",
"$$@.#$@@..@@@@$$$$@.#$@@..@@@@$$$$@.#$@@..@@@@$$",
"$@@.#@@@@@$$$@@@$@@.#@@@@@$$$@@@$@@.#@@@@@$$$@@@",
"@$$.#@@@@$$@@$$$@$$.#@@@@$$@@$$$@$$.#@@@@$$@@$$$",
"@@@.%&$$$@@$$@@@@@@.%&$$$@@$$@@@@@@.%&$$$@@$$@@@",
"$@$ +*@@@$@@@$$@$@$ +*@@@$@@@$$@$@$ +*@@@$@@@$$@",
"###+=++###+++++####+=++###+++++####+=++###+++++#",
" ..    ....+.    ..    ....+.    ..    ....+.   ",
"$$$@@@@@@$@#@@$$$$$@@@@@@$@#@@$$$$$@@@@@@$@#@@$$",
"@@@$$@$-$@@#@@@@@@@$$@$-$@@#@@@@@@@$$@$-$@@#@@@@",
"@@@@@$$$$@@#$$@@@@@@@$$$$@@#$$@@@@@@@$$$$@@#$$@@",
"@$$$$@@@@$$#@@$$@$$$$@@@@$$#@@$$@$$$$@@@@$$#@@$$",
"@@@@@$$$@@@#@@@@@@@@@$$$@@@#@@@@@@@@@$$$@@@#@@@@",
"@@$$@@@@$$@+$$@@@@$$@@@@$$@+$$@@@@$$@@@@$$@+$$@@",
"=#==######+=+###=#==######+=+###=#==######+=+###",
" .. +.   ... .   .. +.   ... .   .. +.   ... .  ",
"@@@.#$$$@@@@@@@@@@@.#$$$@@@@@@@@@@@.#$$$@@@@@@@@",
"$$@.#$@@..@@@@$$$$@.#$@@..@@@@$$$$@.#$@@..@@@@$$",
"$@@.#@@@@@$$$@@@$@@.#@@@@@$$$@@@$@@.#@@@@@$$$@@@",
"@$$.#@@@@$$@@$$$@$$.#@@@@$$@@$$$@$$.#@@@@$$@@$$$",
"@@@.%&$$$@@$$@@@@@@.%&$$$@@$$@@@@@@.%&$$$@@$$@@@",
"$@$ +*@@@$@@@$$@$@$ +*@@@$@@@$$@$@$ +*@@@$@@@$$@",
"###+=++###+++++####+=++###+++++####+=++###+++++#",
" ..    ....+.    ..    ....+.    ..    ....+.   ",
"$$$@@@@@@$@#@@$$$$$@@@@@@$@#@@$$$$$@@@@@@$@#@@$$",
"@@@$$@$-$@@#@@@@@@@$$@$-$@@#@@@@@@@$$@$-$@@#@@@@",
"@@@@@$$$$@@#$$@@@@@@@$$$$@@#$$@@@@@@@$$$$@@#$$@@",
"@$$$$@@@@$$#@@$$@$$$$@@@@$$#@@$$@$$$$@@@@$$#@@$$",
"@@@@@$$$@@@#@@@@@@@@@$$$@@@#@@@@@@@@@$$$@@@#@@@@",
"@@$$@@@@$$@+$$@@@@$$@@@@$$@+$$@@@@$$@@@@$$@+$$@@",
"=#==######+=+###=#==######+=+###=#==######+=+###",
" .. +.   ... .   .. +.   ... .   .. +.   ... .  ",
"@@@.#$$$@@@@@@@@@@@.#$$$@@@@@@@@@@@.#$$$@@@@@@@@",
"$$@.#$@@..@@@@$$$$@.#$@@..@@@@$$$$@.#$@@..@@@@$$",
"$@@.#@@@@@$$$@@@$@@.#@@@@@$$$@@@$@@.#@@@@@$$$@@@",
"@$$.#@@@@$$@@$$$@$$.#@@@@$$@@$$$@$$.#@@@@$$@@$$$",
"@@@.%&$$$@@$$@@@@@@.%&$$$@@$$@@@@@@.%&$$$@@$$@@@",
"$@$ +*@@@$@@@$$@$@$ +*@@@$@@@$$@$@$ +*@@@$@@@$$@",
"###+=++###+++++####+=++###+++++####+=++###+++++#",
" ..    ....+.    ..    ....+.    ..    ....+.   ",
"$$$@@@@@@$@#@@$$$$$@@@@@@$@#@@$$$$$@@@@@@$@#@@$$",
"@@@$$@$-$@@#@@@@@@@$$@$-$@@#@@@@@@@$$@$-$@@#@@@@",
"@@@@@$$$$@@#$$@@@@@@@$$$$@@#$$@@@@@@@$$$$@@#$$@@",
"@$$$$@@@@$$#@@$$@$$$$@@@@$$#@@$$@$$$$@@@@$$#@@$$",
"@@@@@$$$@@@#@@@@@@@@@$$$@@@#@@@@@@@@@$$$@@@#@@@@",
"@@$$@@@@$$@+$$@@@@$$@@@@$$@+$$@@@@$$@@@@$$@+$$@@",
"=#==######+=+###=#==######+=+###=#==######+=+###",
" .. +.   ... .   .. +.   ... .   .. +.   ... .  ",
"@@@.#$$$@@@@@@@@@@@.#$$$@@@@@@@@@@@.#$$$@@@@@@@@",
"$$@.#$@@..@@@@$$$$@.#$@@..@@@@$$$$@.#$@@..@@@@$$",
"$@@.#@@@@@$$$@@@$@@.#@@@@@$$$@@@$@@.#@@@@@$$$@@@",
"@$$.#@@@@$$@@$$$@$$.#@@@@$$@@$$$@$$.#@@@@$$@@$$$",
"@@@.%&$$$@@$$@@@@@@.%&$$$@@$$@@@@@@.%&$$$@@$$@@@",
"$@$ +*@@@$@@@$$@$@$ +*@@@$@@@$$@$@$ +*@@@$@@@$$@",
"###+=++###+++++####+=++###+++++####+=++###+++++#",
" ..    ....+.    ..    ....+.    ..    ....+.   ",
"$$$@@@@@@$@#@@$$$$$@@@@@@$@#@@$$$$$@@@@@@$@#@@$$",
"@@@$$@$-$@@#@@@@@@@$$@$-$@@#@@@@@@@$$@$-$@@#@@@@",
"@@@@@$$$$@@#$$@@@@@@@$$$$@@#$$@@@@@@@$$$$@@#$$@@",
"@$$$$@@@@$$#@@$$@$$$$@@@@$$#@@$$@$$$$@@@@$$#@@$$",
"@@@@@$$$@@@#@@@@@@@@@$$$@@@#@@@@@@@@@$$$@@@#@@@@",
"@@$$@@@@$$@+$$@@@@$$@@@@$$@+$$@@@@$$@@@@$$@+$$@@",
"=#==######+=+###=#==######+=+###=#==######+=+###"};
