/* XPM */
static char * brick_xpm[] = {
"48 64 16 1",
" 	c #C9A67C",
".	c #C2A080",
"+	c #BD9B7B",
"@	c #B08D6B",
"#	c #A68362",
"$	c #BA9775",
"%	c #B89677",
"&	c #907154",
"*	c #B49271",
"=	c #BE9C7A",
"-	c #B2906E",
";	c #9A7A5B",
">	c #BC9A77",
",	c #85624B",
"'	c #C2A081",
")	c #9C7A5B",
"    .  .   +   +    .  .   +   +    .  .   +   +",
" ...++....+@+++# ...++....+@+++# ...++....+@+++#",
" $@ +%%%%%.%@+@& $@ +%%%%%.%@+@& $@ +%%%%%.%@+@&",
" .%$*$%@@...+.$& .%$*$%@@...+.$& .%$*$%@@...+.$&",
" $@==@=%%**$$--; $@==@=%%**$$--; $@==@=%%**$$--;",
" .=*#= ==$@#>>-; .=*#= ==$@#>>-; .=*#= ==$@#>>-;",
"####&##########,####&##########,####&##########,",
",,,,,,,,,,,,,,,,,,,,,,,,,,,,,,,,,,,,,,,,,,,,,,,,",
"  . ..'@   .      . ..'@   .      . ..'@   .    ",
"..$.=$$) ''$$.....$.=$$) ''$$.....$.=$$) ''$$...",
"$$=**@@&'$$..$@@$$=**@@&'$$..$@@$$=**@@&'$$..$@@",
"$. .$$@;'''$$= =$. .$$@;'''$$= =$. .$$@;'''$$= =",
"--$$@$@;'>>--$..--$$@$@;'>>--$..--$$@$@;'>>--$..",
" $$@$$$&'>@>>>@$ $$@$$$&'>@>>>@$ $$@$$$&'>@>>>@$",
"#######,##&############,##&############,##&#####",
",,,,,,,,,,,,,,,,,,,,,,,,,,,,,,,,,,,,,,,,,,,,,,,,",
"    .  .   +   +    .  .   +   +    .  .   +   +",
" ...++....+@+++# ...++....+@+++# ...++....+@+++#",
" $@ +%%%%%.%@+@& $@ +%%%%%.%@+@& $@ +%%%%%.%@+@&",
" .%$*$%@@...+.$& .%$*$%@@...+.$& .%$*$%@@...+.$&",
" $@==@=%%**$$--; $@==@=%%**$$--; $@==@=%%**$$--;",
" .=*#= ==$@#>>-; .=*#= ==$@#>>-; .=*#= ==$@#>>-;",
"####&##########,####&##########,####&##########,",
",,,,,,,,,,,,,,,,,,,,,,,,,,,,,,,,,,,,,,,,,,,,,,,,",
"  . ..'@   .      . ..'@   .      . ..'@   .    ",
"..$.=$$) ''$$.....$.=$$) ''$$.....$.=$$) ''$$...",
"$$=**@@&'$$..$@@$$=**@@&'$$..$@@$$=**@@&'$$..$@@",
"$. .$$@;'''$$= =$. .$$@;'''$$= =$. .$$@;'''$$= =",
"--$$@$@;'>>--$..--$$@$@;'>>--$..--$$@$@;'>>--$..",
" $$@$$$&'>@>>>@$ $$@$$$&'>@>>>@$ $$@$$$&'>@>>>@$",
"#######,##&############,##&############,##&#####",
",,,,,,,,,,,,,,,,,,,,,,,,,,,,,,,,,,,,,,,,,,,,,,,,",
"    .  .   +   +    .  .   +   +    .  .   +   +",
" ...++....+@+++# ...++....+@+++# ...++....+@+++#",
" $@ +%%%%%.%@+@& $@ +%%%%%.%@+@& $@ +%%%%%.%@+@&",
" .%$*$%@@...+.$& .%$*$%@@...+.$& .%$*$%@@...+.$&",
" $@==@=%%**$$--; $@==@=%%**$$--; $@==@=%%**$$--;",
" .=*#= ==$@#>>-; .=*#= ==$@#>>-; .=*#= ==$@#>>-;",
"####&##########,####&##########,####&##########,",
",,,,,,,,,,,,,,,,,,,,,,,,,,,,,,,,,,,,,,,,,,,,,,,,",
"  . ..'@   .      . ..'@   .      . ..'@   .    ",
"..$.=$$) ''$$.....$.=$$) ''$$.....$.=$$) ''$$...",
"$$=**@@&'$$..$@@$$=**@@&'$$..$@@$$=**@@&'$$..$@@",
"$. .$$@;'''$$= =$. .$$@;'''$$= =$. .$$@;'''$$= =",
"--$$@$@;'>>--$..--$$@$@;'>>--$..--$$@$@;'>>--$..",
" $$@$$$&'>@>>>@$ $$@$$$&'>@>>>@$ $$@$$$&'>@>>>@$",
"#######,##&############,##&############,##&#####",
",,,,,,,,,,,,,,,,,,,,,,,,,,,,,,,,,,,,,,,,,,,,,,,,",
"    .  .   +   +    .  .   +   +    .  .   +   +",
" ...++....+@+++# ...++....+@+++# ...++....+@+++#",
" $@ +%%%%%.%@+@& $@ +%%%%%.%@+@& $@ +%%%%%.%@+@&",
" .%$*$%@@...+.$& .%$*$%@@...+.$& .%$*$%@@...+.$&",
" $@==@=%%**$$--; $@==@=%%**$$--; $@==@=%%**$$--;",
" .=*#= ==$@#>>-; .=*#= ==$@#>>-; .=*#= ==$@#>>-;",
"####&##########,####&##########,####&##########,",
",,,,,,,,,,,,,,,,,,,,,,,,,,,,,,,,,,,,,,,,,,,,,,,,",
"  . ..'@   .      . ..'@   .      . ..'@   .    ",
"..$.=$$) ''$$.....$.=$$) ''$$.....$.=$$) ''$$...",
"$$=**@@&'$$..$@@$$=**@@&'$$..$@@$$=**@@&'$$..$@@",
"$. .$$@;'''$$= =$. .$$@;'''$$= =$. .$$@;'''$$= =",
"--$$@$@;'>>--$..--$$@$@;'>>--$..--$$@$@;'>>--$..",
" $$@$$$&'>@>>>@$ $$@$$$&'>@>>>@$ $$@$$$&'>@>>>@$",
"#######,##&############,##&############,##&#####",
",,,,,,,,,,,,,,,,,,,,,,,,,,,,,,,,,,,,,,,,,,,,,,,,"};
