/* XPM */
static char * crate_2_xpm[] = {
"48 64 7 1",
" 	c #979578",
".	c #807B6A",
"+	c #67625C",
"@	c #4F4C48",
"#	c #322320",
"$	c #3E3936",
"%	c #28221F",
"   ......+....+.+.+.+....................+....+.",
".@@@@@@@@@@@@@@@@@@@@@@@@@@@@@@@@@@@@@@@@@@@@@@@",
".@@@@@@@@@@@@@@@@@@@@@@@@@@@@@@@@@@@@@@@@@@@@@@#",
"+@$.#@@@@@@@@@@@@@@@@@@@@@@@@@@@@@@@@@@@@@$.#@@@",
".@$##@@@@@@@@@@@@@@@@@@@@@@@@@@@@@@@@@@@@@$##@@#",
"+@$$@@@@@@@@@@@@@@@@@@@@@@@@@@@@@@@@@@@@@@$$@@@@",
"+@@@@@@@@@@@@@@@@@@@@@@@@@@@@@@@@@@@@@@@@@@@@@@#",
"+@@@@@@@@@@@@@@@@@@@@@@@@@@@@@@@@@@@@@@@@@@@@@@#",
"@@@@@@@@%%########$#$$$$$$$$$$$$$#$#$###@@@@@@@#",
"+@@@@@@@%$@@@@@@@@@@@@@@@@@@@@@@@@@@@@@@@@@@@@@#",
"@@@@@@@@#@@@@@@@@@@@@@@@@@@@@@@@@@@@@@@+@@@@@@@#",
"+@@@@@@@#@@@@@@@@@@@@@@@@@@@@@@@@@@@@@@@@@@@@@@#",
"+@@@@@@@$@@@@@@@@@@@@@@@@@@@@@@@@@@@@@@+@@@@@@@$",
"+@@@@@@@$@@@@@@@@@@@@@@@@@@@@@@@@@@@@@@+@@@@@@@#",
"+@@@@@@@#@@@@@@@@@@@@@@@@@@@@@@@@@@@@@@+@@@@@@@$",
"+@@@@@@@$@@@@@@@@@@@@@@@@@@@@@@@@@@@@@@+@@@@@@@$",
"+@@@@@@@$@@@@@@@@@@@@@@@@@@@@@@@@@@@@@@.@@@@@@@$",
"+@@@@@@@$@@@@@@@@@@@@@@@@@@@@@@@@@@@@@@.@@@@@@@#",
"+@@@@@@@$@@@@@@@@@@@@@@@@@@@@@@@@@@@@@@.@@@@@@@$",
"+@@@@@@@$@@@@@@@@@@@@@@@@@@@@@@@@@@@@@@.@@@@@@@#",
"+@@@@@@@$@@@@@@@@@@@@@@@@@@@@@@@@@@@@@@.@@@@@@@#",
"+@@@@@@@$@@@@@@@@@@@@@@@@@@@@@@@@@@@@@@.@@@@@@@#",
"+@@@@@@@$@@@@@@@@@@@@@@@@@@@@@@@@@@@@@@.@@@@@@@#",
"+@@@@@@@$@@@@@@@@@@@@@@@@@@@@@@@@@@@@@@.@@@@@@@#",
"+@@@@@@@$@@@@@@@@@@@@@@@@@@@@@@@@@@@@@@.@@@@@@@#",
"+@@@@@@@$@@@@@@@@@@@@@@@@@@@@@@@@@@@@@@.@@@@@@@#",
"+@@@@@@@$@@@@@@@@@@@@@@@@@@@@@@@@@@@@@@.@@@@@@@#",
"+@@@@@@@$@@@@@@@@@@@@@@@@@@@@@@@@@@@@@@.@@@@@@@$",
"+@@@@@@@$@@@@@@@@@@@@@@@@@@@@@@@@@@@@@@.@@@@@@@#",
"@@@@@@@@#@@@@@@@@@@@@@@@@@@@@@@@@@@@@@@+@@@@@@@$",
"+@@@@@@@$@@@@@@@@@@@@@@@@@@@@@@@@@@@@@@.@@@@@@@#",
"@@@@@@@@#@@@@@@@@@@@@@@@@@@@@@@@@@@@@@@+@@@@@@@$",
"+@@@@@@@$@@@@@@@@@@@@@@@@@@@@@@@@@@@@@@+@@@@@@@$",
"@@@@@@@@#@@@@@@@@@@@@@@@@@@@@@@@@@@@@@@+@@@@@@@$",
"+@@@@@@@#@@@@@@@@@@@@@@@@@@@@@@@@@@@@@@+@@@@@@@$",
"+@@@@@@@#@@@@@@@@@@@@@@@@@@@@@@@@@@@@@@+@@@@@@@$",
"+@@@@@@@#@@@@@@@@@@@@@@@@@@@@@@@@@@@@@@+@@@@@@@$",
"+@@@@@@@#@@@@@@@@@@@@@@@@@@@@@@@@@@@@@@+@@@@@@@$",
"+@@@@@@@#@@@@@@@@@@@@@@@@@@@@@@@@@@@@@@+@@@@@@@$",
"+@@@@@@@#@@@@@@@@@@@@@@@@@@@@@@@@@@@@@@+@@@@@@@$",
"@@@@@@@@#@@@@@@@@@@@@@@@@@@@@@@@@@@@@@@+@@@@@@@$",
"+@@@@@@@#@@@@@@@@@@@@@@@@@@@@@@@@@@@@@@+@@@@@@@$",
"@@@@@@@@#@@@@@@@@@@@@@@@@@@@@@@@@@@@@@@+@@@@@@@#",
"@@@@@@@@#@@@@@@@@@@@@@@@@@@@@@@@@@@@@@@+@@@@@@@$",
"@@@@@@@@#@@@@@@@@@@@@@@@@@@@@@@@@@@@@@@+@@@@@@@#",
"@@@@@@@@#@@@@@@@@@@@@@@@@@@@@@@@@@@@@@@+@@@@@@@$",
"@@@@@@@@#@@@@@@@@@@@@@@@@@@@@@@@@@@@@@@+@@@@@@@$",
"+@@@@@@@#@@@@@@@@@@@@@@@@@@@@@@@@@@@@@@+@@@@@@@$",
"@@@@@@@@#@@@@@@@@@@@@@@@@@@@@@@@@@@@@@@+@@@@@@@$",
"+@@@@@@@#@@@@@@@@@@@@@@@@@@@@@@@@@@@@@@.@@@@@@@$",
"+@@@@@@@#@@@@@@@@@@@@@@@@@@@@@@@@@@@@@@+@@@@@@@$",
"+@@@@@@@#@@@@@@@@@@@@@@@@@@@@@@@@@@@@@@.@@@@@@@$",
"+@@@@@@@#@@@@@@@@@@@@@@@@@@@@@@@@@@@@@@+@@@@@@@#",
"+@@@@@@@#@@@@@@@@@@@@@@@@@@@@@@@@@@@@@@.@@@@@@@$",
"+@@@@@@@#@@@@@@@@@@@@@@@@@@@@@@@@@@@@@@.@@@@@@@#",
"+@@@@@@@#@@@@@@@@@@@@@@@@@@@@@@@@@@@@@@.@@@@@@@#",
"+@@@@@@@@++++..................+.+......@@@@@@@#",
"+@@@@@@@@@@@@@@@@@@@@@@@@@@@@@@@@@@@@@@@@@@@@@@#",
"@@@@@@@@@@@@@@@@@@@@@@@@@@@@@@@@@@@@@@@@@@@@@@@#",
"+@$.#@@@@@@@@@@@@@@@@@@@@@@@@@@@@@@@@@@@@@$.#@@#",
"@@$##@@@@@@@@@@@@@@@@@@@@@@@@@@@@@@@@@@@@@$##@@#",
"+@$$@@@@@@@@@@@@@@@@@@@@@@@@@@@@@@@@@@@@@@$$@@@#",
"@@@@@@@@@@@@@@@@@@@@@@@@@@@@@@@@@@@@@@@@@@@@@@@#",
"$######$#$#$$$$$$$#$#$$$#$#$$#$#$###############"};
