/* XPM */
static char * little_brick_1_xpm[] = {
"48 64 21 1",
" 	c #A59282",
".	c #AC604B",
"+	c #B76F5B",
"@	c #BCA796",
"#	c #B16752",
"$	c #925542",
"%	c #7B5041",
"&	c #845444",
"*	c #7C4E3E",
"=	c #8D5745",
"-	c #85513F",
";	c #7E4C3B",
">	c #66473C",
",	c #865241",
"'	c #7F5243",
")	c #774C3D",
"!	c #734A3B",
"~	c #6F4B3F",
"{	c #814F3E",
"]	c #784E40",
"^	c #895544",
" .+@+..#+..@+..+..+@+..#+..@+..+..+@+..#+..@+.. ",
" $%@.&&*&=%@.-===$%@.&&*&=%@.-===$%@.&&*&=%@.-= ",
" =;@.=*%&%>@.=;=,=;@.=*%&%>@.=;=,=;@.=*%&%>@.=; ",
"   @       @       @       @       @       @    ",
" ..+..+@+...++.@+..+..+@+...++.@+..+..+@+...++. ",
" ;'&&)=@.=&!%&%@.;'&&)=@.=&!%&%@.;'&&)=@.=&!%&% ",
" &~'==;@.&*&&=!@.&~'==;@.&*&&=!@.&~'==;@.&*&&=! ",
"       @       @       @       @       @        ",
" .+@+++.+..@+..+..+@+++.+..@+..+..+@+++.+..@+.. ",
" -%@.='-==%@+-===-%@.='-==%@+-===-%@.='-==%@+-= ",
" =-@.=-===-@.=-===-@.=-===-@.=-===-@.=-===-@.=- ",
"   @       @       @       @       @       @    ",
" ..+..+@+...++.@+..+..+@+...++.@+..+..+@+...++. ",
" {=,,$'@.==]==%@.{=,,$'@.==]==%@.{=,,$'@.==]==% ",
" =$^^=;@.=;===;@.=$^^=;@.=;===;@.=$^^=;@.=;===; ",
"       @       @       @       @       @        ",
" .+@+..#+..@+..+..+@+..#+..@+..+..+@+..#+..@+.. ",
" $%@.&&*&=%@.-===$%@.&&*&=%@.-===$%@.&&*&=%@.-= ",
" =;@.=*%&%>@.=;=,=;@.=*%&%>@.=;=,=;@.=*%&%>@.=; ",
"   @       @       @       @       @       @    ",
" ..+..+@+...++.@+..+..+@+...++.@+..+..+@+...++. ",
" ;'&&)=@.=&!%&%@.;'&&)=@.=&!%&%@.;'&&)=@.=&!%&% ",
" &~'==;@.&*&&=!@.&~'==;@.&*&&=!@.&~'==;@.&*&&=! ",
"       @       @       @       @       @        ",
" .+@+++.+..@+..+..+@+++.+..@+..+..+@+++.+..@+.. ",
" -%@.='-==%@+-===-%@.='-==%@+-===-%@.='-==%@+-= ",
" =-@.=-===-@.=-===-@.=-===-@.=-===-@.=-===-@.=- ",
"   @       @       @       @       @       @    ",
" ..+..+@+...++.@+..+..+@+...++.@+..+..+@+...++. ",
" {=,,$'@.==]==%@.{=,,$'@.==]==%@.{=,,$'@.==]==% ",
" =$^^=;@.=;===;@.=$^^=;@.=;===;@.=$^^=;@.=;===; ",
"       @       @       @       @       @        ",
" .+@+..#+..@+..+..+@+..#+..@+..+..+@+..#+..@+.. ",
" $%@.&&*&=%@.-===$%@.&&*&=%@.-===$%@.&&*&=%@.-= ",
" =;@.=*%&%>@.=;=,=;@.=*%&%>@.=;=,=;@.=*%&%>@.=; ",
"   @       @       @       @       @       @    ",
" ..+..+@+...++.@+..+..+@+...++.@+..+..+@+...++. ",
" ;'&&)=@.=&!%&%@.;'&&)=@.=&!%&%@.;'&&)=@.=&!%&% ",
" &~'==;@.&*&&=!@.&~'==;@.&*&&=!@.&~'==;@.&*&&=! ",
"       @       @       @       @       @        ",
" .+@+++.+..@+..+..+@+++.+..@+..+..+@+++.+..@+.. ",
" -%@.='-==%@+-===-%@.='-==%@+-===-%@.='-==%@+-= ",
" =-@.=-===-@.=-===-@.=-===-@.=-===-@.=-===-@.=- ",
"   @       @       @       @       @       @    ",
" ..+..+@+...++.@+..+..+@+...++.@+..+..+@+...++. ",
" {=,,$'@.==]==%@.{=,,$'@.==]==%@.{=,,$'@.==]==% ",
" =$^^=;@.=;===;@.=$^^=;@.=;===;@.=$^^=;@.=;===; ",
"       @       @       @       @       @        ",
" .+@+..#+..@+..+..+@+..#+..@+..+..+@+..#+..@+.. ",
" $%@.&&*&=%@.-===$%@.&&*&=%@.-===$%@.&&*&=%@.-= ",
" =;@.=*%&%>@.=;=,=;@.=*%&%>@.=;=,=;@.=*%&%>@.=; ",
"   @       @       @       @       @       @    ",
" ..+..+@+...++.@+..+..+@+...++.@+..+..+@+...++. ",
" ;'&&)=@.=&!%&%@.;'&&)=@.=&!%&%@.;'&&)=@.=&!%&% ",
" &~'==;@.&*&&=!@.&~'==;@.&*&&=!@.&~'==;@.&*&&=! ",
"       @       @       @       @       @        ",
" .+@+++.+..@+..+..+@+++.+..@+..+..+@+++.+..@+.. ",
" -%@.='-==%@+-===-%@.='-==%@+-===-%@.='-==%@+-= ",
" =-@.=-===-@.=-===-@.=-===-@.=-===-@.=-===-@.=- ",
"   @       @       @       @       @       @    ",
" ..+..+@+...++.@+..+..+@+...++.@+..+..+@+...++. ",
" {=,,$'@.==]==%@.{=,,$'@.==]==%@.{=,,$'@.==]==% ",
" =$^^=;@.=;===;@.=$^^=;@.=;===;@.=$^^=;@.=;===; ",
"       @       @       @       @       @        "};
