/* XPM */
static char * little_brick_2_xpm[] = {
"48 64 20 1",
" 	c #606060",
".	c #838383",
"+	c #888888",
"@	c #4D5A35",
"#	c #949494",
"$	c #9B9B9B",
"%	c #797979",
"&	c #677B3F",
"*	c #737373",
"=	c #637049",
"-	c #676666",
";	c #5B5959",
">	c #536138",
",	c #5E5E5E",
"'	c #686868",
")	c #64665F",
"!	c #6A7F43",
"~	c #79895B",
"{	c #7F7F7F",
"]	c #A4A4A4",
" ..++@+.#..$ +#++..++@+.#..$ +#++..++@+.#..$ +# ",
" %&%# *%*=&.@%%**%&%# *%*=&.@%%**%&%# *%*=&.@%% ",
" &=%+@**%&%+@%***&=%+@**%&%+@%***&=%+@**%&%+@%* ",
" -  -;>@,''-;@)---  -;>@,''-;@)---  -;>@,''-;@) ",
" + +!~+.$ +..++..+ +!~+.$ +..++..+ +!~+.$ +..++ ",
" . !=%%%. *%&*%%%. !=%%%. *%&*%%%. !=%%%. *%&*% ",
" +;*&**%+;%*%=&%%+;*&**%+;%*%=&%%+;*&**%+;%*%=& ",
" -;>>@'';>>@ ---'-;>>@'';>>@ ---'-;>>@'';>>@ -- ",
" ..$@#{.!~+.$]-++..$@#{.!~+.$]-++..$@#{.!~+.$]- ",
" *%. %*==**%%. %**%. %*==**%%. %**%. %*==**%%.  ",
" *%+-**&%**&%+ %&*%+-**&%**&%+ %&*%+-**&%**&%+  ",
" @>'->>@ ;;--' ;;@>'->>@ ;;--' ;;@>'->>@ ;;--'  ",
" +'++~..+$'++.+..+'++~..+$'++.+..+'++~..+$'++.+ ",
" . %=%%*%.-*%=&*%. %=%%*%.-*%=&*%. %=%%*%.-*%=& ",
" +@%&=*%%+'%=&%%%+@%&=*%%+'%=&%%%+@%&=*%%+'%=&% ",
" @@@>>@ '--->@   @@@>>@ '--->@   @@@>>@ '--->@  ",
" ..++@+.#..$ +#++..++@+.#..$ +#++..++@+.#..$ +# ",
" %&%# *%*=&.@%%**%&%# *%*=&.@%%**%&%# *%*=&.@%% ",
" &=%+@**%&%+@%***&=%+@**%&%+@%***&=%+@**%&%+@%* ",
" -  -;>@,''-;@)---  -;>@,''-;@)---  -;>@,''-;@) ",
" + +!~+.$ +..++..+ +!~+.$ +..++..+ +!~+.$ +..++ ",
" . !=%%%. *%&*%%%. !=%%%. *%&*%%%. !=%%%. *%&*% ",
" +;*&**%+;%*%=&%%+;*&**%+;%*%=&%%+;*&**%+;%*%=& ",
" -;>>@'';>>@ ---'-;>>@'';>>@ ---'-;>>@'';>>@ -- ",
" ..$@#{.!~+.$]-++..$@#{.!~+.$]-++..$@#{.!~+.$]- ",
" *%. %*==**%%. %**%. %*==**%%. %**%. %*==**%%.  ",
" *%+-**&%**&%+ %&*%+-**&%**&%+ %&*%+-**&%**&%+  ",
" @>'->>@ ;;--' ;;@>'->>@ ;;--' ;;@>'->>@ ;;--'  ",
" +'++~..+$'++.+..+'++~..+$'++.+..+'++~..+$'++.+ ",
" . %=%%*%.-*%=&*%. %=%%*%.-*%=&*%. %=%%*%.-*%=& ",
" +@%&=*%%+'%=&%%%+@%&=*%%+'%=&%%%+@%&=*%%+'%=&% ",
" @@@>>@ '--->@   @@@>>@ '--->@   @@@>>@ '--->@  ",
" ..++@+.#..$ +#++..++@+.#..$ +#++..++@+.#..$ +# ",
" %&%# *%*=&.@%%**%&%# *%*=&.@%%**%&%# *%*=&.@%% ",
" &=%+@**%&%+@%***&=%+@**%&%+@%***&=%+@**%&%+@%* ",
" -  -;>@,''-;@)---  -;>@,''-;@)---  -;>@,''-;@) ",
" + +!~+.$ +..++..+ +!~+.$ +..++..+ +!~+.$ +..++ ",
" . !=%%%. *%&*%%%. !=%%%. *%&*%%%. !=%%%. *%&*% ",
" +;*&**%+;%*%=&%%+;*&**%+;%*%=&%%+;*&**%+;%*%=& ",
" -;>>@'';>>@ ---'-;>>@'';>>@ ---'-;>>@'';>>@ -- ",
" ..$@#{.!~+.$]-++..$@#{.!~+.$]-++..$@#{.!~+.$]- ",
" *%. %*==**%%. %**%. %*==**%%. %**%. %*==**%%.  ",
" *%+-**&%**&%+ %&*%+-**&%**&%+ %&*%+-**&%**&%+  ",
" @>'->>@ ;;--' ;;@>'->>@ ;;--' ;;@>'->>@ ;;--'  ",
" +'++~..+$'++.+..+'++~..+$'++.+..+'++~..+$'++.+ ",
" . %=%%*%.-*%=&*%. %=%%*%.-*%=&*%. %=%%*%.-*%=& ",
" +@%&=*%%+'%=&%%%+@%&=*%%+'%=&%%%+@%&=*%%+'%=&% ",
" @@@>>@ '--->@   @@@>>@ '--->@   @@@>>@ '--->@  ",
" ..++@+.#..$ +#++..++@+.#..$ +#++..++@+.#..$ +# ",
" %&%# *%*=&.@%%**%&%# *%*=&.@%%**%&%# *%*=&.@%% ",
" &=%+@**%&%+@%***&=%+@**%&%+@%***&=%+@**%&%+@%* ",
" -  -;>@,''-;@)---  -;>@,''-;@)---  -;>@,''-;@) ",
" + +!~+.$ +..++..+ +!~+.$ +..++..+ +!~+.$ +..++ ",
" . !=%%%. *%&*%%%. !=%%%. *%&*%%%. !=%%%. *%&*% ",
" +;*&**%+;%*%=&%%+;*&**%+;%*%=&%%+;*&**%+;%*%=& ",
" -;>>@'';>>@ ---'-;>>@'';>>@ ---'-;>>@'';>>@ -- ",
" ..$@#{.!~+.$]-++..$@#{.!~+.$]-++..$@#{.!~+.$]- ",
" *%. %*==**%%. %**%. %*==**%%. %**%. %*==**%%.  ",
" *%+-**&%**&%+ %&*%+-**&%**&%+ %&*%+-**&%**&%+  ",
" @>'->>@ ;;--' ;;@>'->>@ ;;--' ;;@>'->>@ ;;--'  ",
" +'++~..+$'++.+..+'++~..+$'++.+..+'++~..+$'++.+ ",
" . %=%%*%.-*%=&*%. %=%%*%.-*%=&*%. %=%%*%.-*%=& ",
" +@%&=*%%+'%=&%%%+@%&=*%%+'%=&%%%+@%&=*%%+'%=&% ",
" @@@>>@ '--->@   @@@>>@ '--->@   @@@>>@ '--->@  "};
