/* XPM */
static char * little_brick_4_xpm[] = {
"48 64 3 1",
" 	c #3E2731",
".	c #804037",
"+	c #733E39",
" .. ....... ....... ....... ....... ....... ... ",
" +. ++++++. ++++++. ++++++. ++++++. ++++++. +++ ",
" +. ++++++. ++++++. ++++++. ++++++. ++++++. +++ ",
"                                                ",
" ....... ....... ....... ....... ....... ...... ",
" ++++++. ++++++. ++++++. ++++++. ++++++. ++++++ ",
" ++++++. ++++++. ++++++. ++++++. ++++++. ++++++ ",
"                                                ",
" .. ....... ....... ....... ....... ....... ... ",
" +. ++++++. ++++++. ++++++. ++++++. ++++++. +++ ",
" +. ++++++. ++++++. ++++++. ++++++. ++++++. +++ ",
"                                                ",
" ....... ....... ....... ....... ....... ...... ",
" ++++++. ++++++. ++++++. ++++++. ++++++. ++++++ ",
" ++++++. ++++++. ++++++. ++++++. ++++++. ++++++ ",
"                                                ",
" .... ....... ....... ....... ....... ....... . ",
" +++. ++++++. ++++++. ++++++. ++++++. ++++++. + ",
" +++. ++++++. ++++++. ++++++. ++++++. ++++++. + ",
"                                                ",
" . ....... ....... ....... ....... ....... .... ",
" . ++++++. ++++++. ++++++. ++++++. ++++++. ++++ ",
" . ++++++. ++++++. ++++++. ++++++. ++++++. ++++ ",
"                                                ",
" .... ....... ....... ....... ....... ....... . ",
" +++. ++++++. ++++++. ++++++. ++++++. ++++++. + ",
" +++. ++++++. ++++++. ++++++. ++++++. ++++++. + ",
"                                                ",
" . ....... ....... ....... ....... ....... .... ",
" . ++++++. ++++++. ++++++. ++++++. ++++++. ++++ ",
" . ++++++. ++++++. ++++++. ++++++. ++++++. ++++ ",
"                                                ",
" ... ....... ....... ....... ....... ....... .. ",
" ++. ++++++. ++++++. ++++++. ++++++. ++++++. ++ ",
" ++. ++++++. ++++++. ++++++. ++++++. ++++++. ++ ",
"                                                ",
"  ....... ....... ....... ....... ....... ..... ",
"  ++++++. ++++++. ++++++. ++++++. ++++++. +++++ ",
"  ++++++. ++++++. ++++++. ++++++. ++++++. +++++ ",
"                                                ",
" ... ....... ....... ....... ....... ....... .. ",
" ++. ++++++. ++++++. ++++++. ++++++. ++++++. ++ ",
" ++. ++++++. ++++++. ++++++. ++++++. ++++++. ++ ",
"                                                ",
"  ....... ....... ....... ....... ....... ..... ",
"  ++++++. ++++++. ++++++. ++++++. ++++++. +++++ ",
"  ++++++. ++++++. ++++++. ++++++. ++++++. +++++ ",
"                                                ",
" ...... ....... ....... ....... ....... ....... ",
" +++++. ++++++. ++++++. ++++++. ++++++. ++++++. ",
" +++++. ++++++. ++++++. ++++++. ++++++. ++++++. ",
"                                                ",
" ... ....... ....... ....... ....... ....... .. ",
" ++. ++++++. ++++++. ++++++. ++++++. ++++++. ++ ",
" ++. ++++++. ++++++. ++++++. ++++++. ++++++. ++ ",
"                                                ",
" ...... ....... ....... ....... ....... ....... ",
" +++++. ++++++. ++++++. ++++++. ++++++. ++++++. ",
" +++++. ++++++. ++++++. ++++++. ++++++. ++++++. ",
"                                                ",
" ... ....... ....... ....... ....... ....... .. ",
" ++. ++++++. ++++++. ++++++. ++++++. ++++++. ++ ",
" ++. ++++++. ++++++. ++++++. ++++++. ++++++. ++ ",
"                                                "};
