/* XPM */
static char * little_brick_3_xpm[] = {
"48 64 4 1",
" 	c #22263D",
".	c #455272",
"+	c #262B44",
"@	c #3A4466",
" ..+....@..+..@@@..+....@..+..@@@..+....@..+..@ ",
" @@+@@@@@@.+@@@@@@@+@@@@@@.+@@@@@@@+@@@@@@.+@@@ ",
" @@+@@@@@@. @@@@@@@+@@@@@@. @@@@@@@+@@@@@@. @@@ ",
" +   ++++    +++++   ++++    +++++   ++++    ++ ",
" ..@@...+.......+..@@...+.......+..@@...+...... ",
" @@@@@@@+@@@@@@.+@@@@@@@+@@@@@@.+@@@@@@@+@@@@@@ ",
" @@@@@@@ @@@@@@.+@@@@@@@ @@@@@@.+@@@@@@@ @@@@@@ ",
"  ++++      ++    ++++      ++    ++++      ++  ",
" ..+@@@@... ..@@...+@@@@... ..@@...+@@@@... ..@ ",
" @.+@@@@@@.+@@@@@@.+@@@@@@.+@@@@@@.+@@@@@@.+@@@ ",
" @. @@@@@@.+@@@@@@. @@@@@@.+@@@@@@. @@@@@@.+@@@ ",
"  +    ++         +    ++         +    ++       ",
" .+..@@@..+....@..+..@@@..+....@..+..@@@..+.... ",
" .+@@@@@@@+@@@@@@.+@@@@@@@+@@@@@@.+@@@@@@@+@@@@ ",
" . @@@@@@@+@@@@@@. @@@@@@@+@@@@@@. @@@@@@@+@@@@ ",
"    +++++   ++++    +++++   ++++    +++++   +++ ",
" ......+..@@...+.......+..@@...+.......+..@@... ",
" @@@@@.+@@@@@@@+@@@@@@.+@@@@@@@+@@@@@@.+@@@@@@@ ",
" @@@@@.+@@@@@@@ @@@@@@.+@@@@@@@ @@@@@@.+@@@@@@@ ",
"   ++    ++++      ++    ++++      ++    ++++   ",
" . ..@@...+@@@@... ..@@...+@@@@... ..@@...+@@@@ ",
" .+@@@@@@.+@@@@@@.+@@@@@@.+@@@@@@.+@@@@@@.+@@@@ ",
" .+@@@@@@. @@@@@@.+@@@@@@. @@@@@@.+@@@@@@. @@@@ ",
"         +    ++         +    ++         +    + ",
" ..@@@..+....@..+..@@@..+....@..+..@@@..+....@. ",
" @@@@@@@+@@@@@@.+@@@@@@@+@@@@@@.+@@@@@@@+@@@@@@ ",
" @@@@@@@+@@@@@@. @@@@@@@+@@@@@@. @@@@@@@+@@@@@@ ",
"  +++++   ++++    +++++   ++++    +++++   ++++  ",
" ....+..@@...+.......+..@@...+.......+..@@...+. ",
" @@@.+@@@@@@@+@@@@@@.+@@@@@@@+@@@@@@.+@@@@@@@+@ ",
" @@@.+@@@@@@@ @@@@@@.+@@@@@@@ @@@@@@.+@@@@@@@ @ ",
" ++    ++++      ++    ++++      ++    ++++     ",
" ..@@...+@@@@... ..@@...+@@@@... ..@@...+@@@@.. ",
" @@@@@@.+@@@@@@.+@@@@@@.+@@@@@@.+@@@@@@.+@@@@@@ ",
" @@@@@@. @@@@@@.+@@@@@@. @@@@@@.+@@@@@@. @@@@@@ ",
"       +    ++         +    ++         +    ++  ",
" @...+@@@....+..@@...+@@@....+..@@...+@@@....+. ",
" @@@@+@@@@@@.+@@@@@@@+@@@@@@.+@@@@@@@+@@@@@@.+@ ",
" @@@@ @@@@@@. @@@@@@@ @@@@@@. @@@@@@@ @@@@@@. @ ",
" ++    +++       ++    +++       ++    +++      ",
" ..+@@@@... ..@@...+@@@@... ..@@...+@@@@... ..@ ",
" @.+@@@@@@.+@@@@@@.+@@@@@@.+@@@@@@.+@@@@@@.+@@@ ",
" @. @@@@@@.+@@@@@@. @@@@@@.+@@@@@@. @@@@@@.+@@@ ",
"  +    ++         +    ++         +    ++       ",
" @@@....+..@@...+@@@....+..@@...+@@@....+..@@.. ",
" @@@@@@.+@@@@@@@+@@@@@@.+@@@@@@@+@@@@@@.+@@@@@@ ",
" @@@@@@. @@@@@@@ @@@@@@. @@@@@@@ @@@@@@. @@@@@@ ",
"  +++       ++    +++       ++    +++       ++  ",
" @@@..+....@..+..@@@..+....@..+..@@@..+....@..+ ",
" @@@@@+@@@@@@.+@@@@@@@+@@@@@@.+@@@@@@@+@@@@@@.+ ",
" @@@@@+@@@@@@. @@@@@@@+@@@@@@. @@@@@@@+@@@@@@.  ",
" ++++   ++++    +++++   ++++    +++++   ++++    ",
" ..+..@@...+.......+..@@...+.......+..@@...+... ",
" @.+@@@@@@@+@@@@@@.+@@@@@@@+@@@@@@.+@@@@@@@+@@@ ",
" @.+@@@@@@@ @@@@@@.+@@@@@@@ @@@@@@.+@@@@@@@ @@@ ",
"     ++++      ++    ++++      ++    ++++       ",
" @@...+@@@@... ..@@...+@@@@... ..@@...+@@@@...  ",
" @@@@.+@@@@@@.+@@@@@@.+@@@@@@.+@@@@@@.+@@@@@@.+ ",
" @@@@. @@@@@@.+@@@@@@. @@@@@@.+@@@@@@. @@@@@@.+ ",
"     +    ++         +    ++         +    ++    ",
" ..+@@@....+..@@...+@@@....+..@@...+@@@....+..@ ",
" @@+@@@@@@.+@@@@@@@+@@@@@@.+@@@@@@@+@@@@@@.+@@@ ",
" @@ @@@@@@. @@@@@@@ @@@@@@. @@@@@@@ @@@@@@. @@@ ",
"     +++       ++    +++       ++    +++        "};
