/* XPM */
static char * wood_wall_xpm[] = {
"48 64 7 1",
" 	c #AA8B5A",
".	c #BB9765",
"+	c #96784C",
"@	c #B39260",
"#	c #7E623B",
"$	c #6B5430",
"%	c #755C36",
" .+..@@@@@@...   .+..@@@@@@...   .+..@@@@@@...  ",
"  +...   @@@      +...   @@@      +...   @@@    ",
"..+.  ............+.  ............+.  ..........",
"###$%%#%%%$$%######$%%#%%%$$%######$%%#%%%$$%###",
"  ..    ..+..@    ..    ..+..@    ..    ..+..@  ",
"    . @@@.+....     . @@@.+....     . @@@.+.... ",
" @@@@.....#.@    @@@@.....#.@    @@@@.....#.@   ",
"$$$$$$$$###$$$##$$$$$$$$###$$$##$$$$$$$$###$$$##",
"@.@@..+.........@.@@..+.........@.@@..+.........",
"@@.@@.+.@@@     @@.@@.+.@@@     @@.@@.+.@@@     ",
"   ...+.@@    ..   ...+.@@    ..   ...+.@@    ..",
"$$$####$$%%%##$$$$$####$$%%%##$$$$$####$$%%%##$$",
"...@@@@...  @.+ ...@@@@...  @.+ ...@@@@...  @.+ ",
"@.@        @.@+ @.@        @.@+ @.@        @.@+ ",
"   ........@@@#.   ........@@@#.   ........@@@#.",
"$$%%%%##%%%##$%%$$%%%%##%%%##$%%$$%%%%##%%%##$%%",
" .+..@@@@@@...   .+..@@@@@@...   .+..@@@@@@...  ",
"  +...   @@@      +...   @@@      +...   @@@    ",
"..+.  ............+.  ............+.  ..........",
"###$%%#%%%$$%######$%%#%%%$$%######$%%#%%%$$%###",
"  ..    ..+..@    ..    ..+..@    ..    ..+..@  ",
"    . @@@.+....     . @@@.+....     . @@@.+.... ",
" @@@@.....#.@    @@@@.....#.@    @@@@.....#.@   ",
"$$$$$$$$###$$$##$$$$$$$$###$$$##$$$$$$$$###$$$##",
"@.@@..+.........@.@@..+.........@.@@..+.........",
"@@.@@.+.@@@     @@.@@.+.@@@     @@.@@.+.@@@     ",
"   ...+.@@    ..   ...+.@@    ..   ...+.@@    ..",
"$$$####$$%%%##$$$$$####$$%%%##$$$$$####$$%%%##$$",
"...@@@@...  @.+ ...@@@@...  @.+ ...@@@@...  @.+ ",
"@.@        @.@+ @.@        @.@+ @.@        @.@+ ",
"   ........@@@#.   ........@@@#.   ........@@@#.",
"$$%%%%##%%%##$%%$$%%%%##%%%##$%%$$%%%%##%%%##$%%",
" .+..@@@@@@...   .+..@@@@@@...   .+..@@@@@@...  ",
"  +...   @@@      +...   @@@      +...   @@@    ",
"..+.  ............+.  ............+.  ..........",
"###$%%#%%%$$%######$%%#%%%$$%######$%%#%%%$$%###",
"  ..    ..+..@    ..    ..+..@    ..    ..+..@  ",
"    . @@@.+....     . @@@.+....     . @@@.+.... ",
" @@@@.....#.@    @@@@.....#.@    @@@@.....#.@   ",
"$$$$$$$$###$$$##$$$$$$$$###$$$##$$$$$$$$###$$$##",
"@.@@..+.........@.@@..+.........@.@@..+.........",
"@@.@@.+.@@@     @@.@@.+.@@@     @@.@@.+.@@@     ",
"   ...+.@@    ..   ...+.@@    ..   ...+.@@    ..",
"$$$####$$%%%##$$$$$####$$%%%##$$$$$####$$%%%##$$",
"...@@@@...  @.+ ...@@@@...  @.+ ...@@@@...  @.+ ",
"@.@        @.@+ @.@        @.@+ @.@        @.@+ ",
"   ........@@@#.   ........@@@#.   ........@@@#.",
"$$%%%%##%%%##$%%$$%%%%##%%%##$%%$$%%%%##%%%##$%%",
" .+..@@@@@@...   .+..@@@@@@...   .+..@@@@@@...  ",
"  +...   @@@      +...   @@@      +...   @@@    ",
"..+.  ............+.  ............+.  ..........",
"###$%%#%%%$$%######$%%#%%%$$%######$%%#%%%$$%###",
"  ..    ..+..@    ..    ..+..@    ..    ..+..@  ",
"    . @@@.+....     . @@@.+....     . @@@.+.... ",
" @@@@.....#.@    @@@@.....#.@    @@@@.....#.@   ",
"$$$$$$$$###$$$##$$$$$$$$###$$$##$$$$$$$$###$$$##",
"@.@@..+.........@.@@..+.........@.@@..+.........",
"@@.@@.+.@@@     @@.@@.+.@@@     @@.@@.+.@@@     ",
"   ...+.@@    ..   ...+.@@    ..   ...+.@@    ..",
"$$$####$$%%%##$$$$$####$$%%%##$$$$$####$$%%%##$$",
"...@@@@...  @.+ ...@@@@...  @.+ ...@@@@...  @.+ ",
"@.@        @.@+ @.@        @.@+ @.@        @.@+ ",
"   ........@@@#.   ........@@@#.   ........@@@#.",
"$$%%%%##%%%##$%%$$%%%%##%%%##$%%$$%%%%##%%%##$%%"};
