/* XPM */
static char * other_1_xpm[] = {
"48 64 6 1",
" 	c #191C10",
".	c #425121",
"+	c #283113",
"@	c #586930",
"#	c #495925",
"$	c #3C491E",
"  .+   @@.#++ ++  .+   @@.#++ ++  .+   @@.#++ ++",
"#  +.@@ @@. #..+#  +.@@ @@. #..+#  +.@@ @@. #..+",
"+#  #.@@++ .+.#++#  #.@@++ .+.#++#  #.@@++ .+.#+",
"+. +##.# + +.@@ +. +##.# + +.@@ +. +##.# + +.@@ ",
".. ++#..   .@@ +.. ++#..   .@@ +.. ++#..   .@@ +",
"  +..+  ##.++     +..+  ##.++     +..+  ##.++   ",
" ++.#+ #+.#  ..+ ++.#+ #+.#  ..+ ++.#+ #+.#  ..+",
"+#.@@ +#.@@+ #..+#.@@ +#.@@+ #..+#.@@ +#.@@+ #..",
"+.@@ #+.@@   @@.+.@@ #+.@@   @@.+.@@ #+.@@   @@.",
"    @@+   ##$ @@    @@+   ##$ @@    @@+   ##$ @@",
"+. @@## +##.#  ++. @@## +##.#  ++. @@## +##.#  +",
"..+#.##  #$@#   ..+#.##  #$@#   ..+#.##  #$@#   ",
" ++..+  +@@# ..# ++..+  +@@# ..# ++..+  +@@# ..#",
".   + ..#    #.#.   + ..#    #.#.   + ..#    #.#",
"# #++ #.##++ @@.# #++ #.##++ @@.# #++ #.##++ @@.",
"+ .+. @@.#+.# @@+ .+. @@.#+.# @@+ .+. @@.#+.# @@",
"  .+   @@.#++ ++  .+   @@.#++ ++  .+   @@.#++ ++",
"#  +.@@ @@. #..+#  +.@@ @@. #..+#  +.@@ @@. #..+",
"+#  #.@@++ .+.#++#  #.@@++ .+.#++#  #.@@++ .+.#+",
"+. +##.# + +.@@ +. +##.# + +.@@ +. +##.# + +.@@ ",
".. ++#..   .@@ +.. ++#..   .@@ +.. ++#..   .@@ +",
"  +..+  ##.++     +..+  ##.++     +..+  ##.++   ",
" ++.#+ #+.#  ..+ ++.#+ #+.#  ..+ ++.#+ #+.#  ..+",
"+#.@@ +#.@@+ #..+#.@@ +#.@@+ #..+#.@@ +#.@@+ #..",
"+.@@ #+.@@   @@.+.@@ #+.@@   @@.+.@@ #+.@@   @@.",
"    @@+   ##$ @@    @@+   ##$ @@    @@+   ##$ @@",
"+. @@## +##.#  ++. @@## +##.#  ++. @@## +##.#  +",
"..+#.##  #$@#   ..+#.##  #$@#   ..+#.##  #$@#   ",
" ++..+  +@@# ..# ++..+  +@@# ..# ++..+  +@@# ..#",
".   + ..#    #.#.   + ..#    #.#.   + ..#    #.#",
"# #++ #.##++ @@.# #++ #.##++ @@.# #++ #.##++ @@.",
"+ .+. @@.#+.# @@+ .+. @@.#+.# @@+ .+. @@.#+.# @@",
"  .+   @@.#++ ++  .+   @@.#++ ++  .+   @@.#++ ++",
"#  +.@@ @@. #..+#  +.@@ @@. #..+#  +.@@ @@. #..+",
"+#  #.@@++ .+.#++#  #.@@++ .+.#++#  #.@@++ .+.#+",
"+. +##.# + +.@@ +. +##.# + +.@@ +. +##.# + +.@@ ",
".. ++#..   .@@ +.. ++#..   .@@ +.. ++#..   .@@ +",
"  +..+  ##.++     +..+  ##.++     +..+  ##.++   ",
" ++.#+ #+.#  ..+ ++.#+ #+.#  ..+ ++.#+ #+.#  ..+",
"+#.@@ +#.@@+ #..+#.@@ +#.@@+ #..+#.@@ +#.@@+ #..",
"+.@@ #+.@@   @@.+.@@ #+.@@   @@.+.@@ #+.@@   @@.",
"    @@+   ##$ @@    @@+   ##$ @@    @@+   ##$ @@",
"+. @@## +##.#  ++. @@## +##.#  ++. @@## +##.#  +",
"..+#.##  #$@#   ..+#.##  #$@#   ..+#.##  #$@#   ",
" ++..+  +@@# ..# ++..+  +@@# ..# ++..+  +@@# ..#",
".   + ..#    #.#.   + ..#    #.#.   + ..#    #.#",
"# #++ #.##++ @@.# #++ #.##++ @@.# #++ #.##++ @@.",
"+ .+. @@.#+.# @@+ .+. @@.#+.# @@+ .+. @@.#+.# @@",
"  .+   @@.#++ ++  .+   @@.#++ ++  .+   @@.#++ ++",
"#  +.@@ @@. #..+#  +.@@ @@. #..+#  +.@@ @@. #..+",
"+#  #.@@++ .+.#++#  #.@@++ .+.#++#  #.@@++ .+.#+",
"+. +##.# + +.@@ +. +##.# + +.@@ +. +##.# + +.@@ ",
".. ++#..   .@@ +.. ++#..   .@@ +.. ++#..   .@@ +",
"  +..+  ##.++     +..+  ##.++     +..+  ##.++   ",
" ++.#+ #+.#  ..+ ++.#+ #+.#  ..+ ++.#+ #+.#  ..+",
"+#.@@ +#.@@+ #..+#.@@ +#.@@+ #..+#.@@ +#.@@+ #..",
"+.@@ #+.@@   @@.+.@@ #+.@@   @@.+.@@ #+.@@   @@.",
"    @@+   ##$ @@    @@+   ##$ @@    @@+   ##$ @@",
"+. @@## +##.#  ++. @@## +##.#  ++. @@## +##.#  +",
"..+#.##  #$@#   ..+#.##  #$@#   ..+#.##  #$@#   ",
" ++..+  +@@# ..# ++..+  +@@# ..# ++..+  +@@# ..#",
".   + ..#    #.#.   + ..#    #.#.   + ..#    #.#",
"# #++ #.##++ @@.# #++ #.##++ @@.# #++ #.##++ @@.",
"+ .+. @@.#+.# @@+ .+. @@.#+.# @@+ .+. @@.#+.# @@"};
