/* XPM */
static char * wall3_xpm[] = {
"48 64 210 2",
"  	c #83755B",
". 	c #8B7C61",
"+ 	c #86775D",
"@ 	c #87785E",
"# 	c #948467",
"$ 	c #342E24",
"% 	c #2D281F",
"& 	c #443C2F",
"* 	c #655A46",
"= 	c #6F634D",
"- 	c #736650",
"; 	c #7A6C55",
"> 	c #786B53",
", 	c #83745B",
"' 	c #2E2920",
") 	c #423B2E",
"! 	c #796C54",
"~ 	c #7F7158",
"{ 	c #8B7C60",
"] 	c #897A5F",
"^ 	c #908164",
"/ 	c #3D362A",
"( 	c #352F24",
"_ 	c #494132",
": 	c #82735A",
"< 	c #756951",
"[ 	c #776A52",
"} 	c #7E7057",
"| 	c #786B54",
"1 	c #84765C",
"2 	c #70644E",
"3 	c #2B261E",
"4 	c #312B22",
"5 	c #2F2A21",
"6 	c #615643",
"7 	c #665B47",
"8 	c #71654F",
"9 	c #625744",
"0 	c #665A46",
"a 	c #958467",
"b 	c #8E7E62",
"c 	c #675C47",
"d 	c #72654F",
"e 	c #6B5F4A",
"f 	c #6C604B",
"g 	c #796B54",
"h 	c #3F382C",
"i 	c #342F24",
"j 	c #7D7057",
"k 	c #776A53",
"l 	c #918164",
"m 	c #968668",
"n 	c #968568",
"o 	c #746851",
"p 	c #766952",
"q 	c #82745A",
"r 	c #7A6C54",
"s 	c #7B6E55",
"t 	c #554C3B",
"u 	c #4E4636",
"v 	c #594F3E",
"w 	c #635945",
"x 	c #5F5542",
"y 	c #6B604A",
"z 	c #6E624C",
"A 	c #8E7F63",
"B 	c #928265",
"C 	c #302A21",
"D 	c #635845",
"E 	c #3A3428",
"F 	c #332D23",
"G 	c #88795E",
"H 	c #29241C",
"I 	c #7B6D55",
"J 	c #71654E",
"K 	c #473F31",
"L 	c #7C6F56",
"M 	c #807259",
"N 	c #4A4233",
"O 	c #4C4435",
"P 	c #685D48",
"Q 	c #6D614C",
"R 	c #675B47",
"S 	c #8F8063",
"T 	c #948366",
"U 	c #8D7D62",
"V 	c #908064",
"W 	c #524939",
"X 	c #4F4737",
"Y 	c #352F25",
"Z 	c #85765C",
"` 	c #8D7D61",
" .	c #8A7B60",
"..	c #7D6F56",
"+.	c #221E18",
"@.	c #695E49",
"#.	c #6E624D",
"$.	c #574E3D",
"%.	c #484032",
"&.	c #574D3C",
"*.	c #494133",
"=.	c #5F5442",
"-.	c #6A5E49",
";.	c #87795E",
">.	c #87785D",
",.	c #5E5441",
"'.	c #5A503F",
").	c #514838",
"!.	c #817359",
"~.	c #28241C",
"{.	c #564D3C",
"].	c #8D7E62",
"^.	c #4B4234",
"/.	c #3E382B",
"(.	c #453E30",
"_.	c #5B513F",
":.	c #5C5240",
"<.	c #605643",
"[.	c #5C523F",
"}.	c #554B3B",
"|.	c #84755B",
"1.	c #463E30",
"2.	c #59503E",
"3.	c #615744",
"4.	c #534A3A",
"5.	c #756851",
"6.	c #534A39",
"7.	c #544B3A",
"8.	c #4D4536",
"9.	c #3A3328",
"0.	c #7C6E56",
"a.	c #625844",
"b.	c #4B4334",
"c.	c #584E3D",
"d.	c #4E4536",
"e.	c #40392C",
"f.	c #41392D",
"g.	c #746751",
"h.	c #4F4637",
"i.	c #413A2D",
"j.	c #645946",
"k.	c #5D5341",
"l.	c #433C2F",
"m.	c #322C22",
"n.	c #504737",
"o.	c #605542",
"p.	c #463F31",
"q.	c #4A4234",
"r.	c #3E372B",
"s.	c #322D23",
"t.	c #27231B",
"u.	c #363026",
"v.	c #332E24",
"w.	c #393227",
"x.	c #393327",
"y.	c #938366",
"z.	c #302B22",
"A.	c #453D30",
"B.	c #2A251D",
"C.	c #312C22",
"D.	c #302B21",
"E.	c #99886A",
"F.	c #645945",
"G.	c #958567",
"H.	c #2B271E",
"I.	c #8C7D61",
"J.	c #988769",
"K.	c #635844",
"L.	c #3C362A",
"M.	c #746750",
"N.	c #978769",
"O.	c #605543",
"P.	c #4D4435",
"Q.	c #474032",
"R.	c #4C4334",
"S.	c #544A3A",
"T.	c #615743",
"U.	c #685C48",
"V.	c #463E31",
"W.	c #363025",
"X.	c #4D4535",
"Y.	c #322C23",
"Z.	c #3C3529",
"`.	c #393328",
" +	c #3B3529",
".+	c #26221A",
"++	c #4C4335",
"@+	c #72664F",
"#+	c #7D6F57",
"$+	c #73664F",
"%+	c #6A5F4A",
"&+	c #978669",
"*+	c #918165",
"=+	c #373126",
"-+	c #383227",
";+	c #5D5340",
">+	c #423A2E",
",+	c #2C271F",
"'+	c #252119",
")+	c #231F18",
"!+	c #2C281F",
"~+	c #231F19",
"{+	c #85775D",
"]+	c #81735A",
"^+	c #9D8C6D",
"/+	c #242019",
"(+	c #211E17",
"_+	c #504838",
":+	c #8A7B5F",
"<+	c #9A896B",
"  . + @ # $ % & * = = - ; > , $ ' ' ) ! ~ @ { ] # ^ $ / ( _ : < [ } | 1 < ! 2 3 4 5 6 * 7 8 9 0 ",
"~ ~ a b 1 @ 1 ' c d e f g h i ' 1 j ' k ; @ . l m a n o - p > > q r ~ q s } } t u v 6 w x y = z ",
"A l B . l l .   k C D E F G , q q ~ ~ } H I J [ o s K - p ~ s - L } > M N O O O t 9 0 P e Q R - ",
"S T U A V > 2 6 W X Y 1 } Z ] `    .@ } ..d +.@.#.$.C = p ~ G A ] + + %.&.O O ) *.D =.9 D D -.c ",
"l ;.+ S >.,.'.X W ).*.+ ;.;.S   + 1 q !.} k | 2 ~.{.) V ].] G + Z ~ > ..O ^./.K (._.:.D =.<.D D ",
"Z ;.Z   M [.,.{.}.X o } 1  .@ =.= U } ~ q ..; ; | E M |.|.[ ~ ; | p p 2 & *.K (.1.[.2._._._.&.=.",
"M } L ] >.Q v 3.4.'.5.> j   ] 4.6.7.4.).X 8.).%.K K >.q s ; k 2 d f z z 0 O (.& h 9.4.&._.2.&.:.",
"p [ L [ > 0.a.&.W b.#.2 [ s q ).c.7.X d.N %.*.6.(.& , p p - 2 = -.f c c D (.& e.,.~ f.C ).7.c.c.",
"* g.= - 2 J $.W ).C * @.= p p 8.O c.O N K h.*.& & i.} P P f P P j.D =.k._.c.l.m.~ b (.Y Y ).).6.",
"f f f f * p Q ).n.4 o.a.2 k K %.^.O ^.) K h.(.i.) i.k 2 z j.D <.k._.c.W :.6.F x 2 f k.W p.q.n.W ",
"Q R =.r.s.t./ ' u.5 {.c.D 0 (.7.K K K ^.i.& ) ) i./ z D D c._.c.7.t W u ~.v.Q w.t.H ' ' ] ~ ~ x.",
"2 k ~ !.!.l A @ y.f 3 z.=.:.).l.l.A.A.& (.) i.Y B.' $ 9 c.D k.i.% ' 2.- k > ~ q } A.C.' 2 d ~ q ",
"~ +   ~ !.;.]  .l ] ` S A D.' ' s.' % ;  .]  .;.] b E.~.~.T l ` ' F.f 9 = - o 2 ~ *.(.H [     + ",
"L ~   l . S G.. . U T =.$.&.H.:.f q ] { 1 @ # I.I.[ ^.A.5 U J.G.c.e c z D f d = d )._ % > [ r 1 ",
"o } L ~ 1 ] l B m &.K.&.t d.5 W {.v k.9 c -.; 2 ; & & ) ' + q.A.L.,.9 <.0 c d e 2 <.& B.* z M.G ",
"d = p r ]   S y.N.v 3.=.u ).d.u n.t c._.k.-.-.z d *.) h s.> *.A.9.v j._.7.k.c j.d P (.5 O.f J M.",
"c <.= o [ q . ` b 7.W ,.X X P.H.Q.R.).).k.=.D P z i.i.i./ f 1.) 5 {.S.{.'.=.-.<.2.k.) ^.{.T.U.Q ",
"j.z e f d > + ~ b ).).X d.P.b.A.{._ n.k.S.2.k.f P 0 i.h l.f i.) i.).).S.t t t k.<.:.*.& '.v _.-.",
"c._.=.c -.= [ r   v P.P.N N _ K V.Q.A.N u 7.2.-._.p /.f.W.f n.p.*.X.P.n.W t &.t -.k.9 8.W W :.9 ",
"u t v ,.j.e o M.r q.1._ %._ 1.l.Y.V.V.Q._ 2.n.2.<.j.) / Z.0 r.`.n.N N u N R.{.W c.9 =.e.c.).t j.",
"P.u ).{.k.=.c z = h.) 1.%.P.l.)  +n.l.W h.K O S._.=.)  +9.@.9.W.{.h.).R.N Q.t R.t &.`.s.C.%.)._.",
"R.P.u n.t 2.9 0 2 h.l. +A.l.W.b.~ 1.) ' Y.B.r.R.c._.`.5 9.3 ' 9.' z.v.t.$ ' Q.c.9 <.R U.:.n.4 H.",
"k .+5 u.++6 a.7 7 h /.u.u.6 @.2 ~ ~ ~ n.5 Q M s f.3 U.P f p p p p K % _.t _.k.9 0 j.c 2 P 7 f e ",
"r } , ~ q H.C.m.H.B.5 % % z.B.C.' % H 5 5 I 1 U A.! !   2 | p | Z.) x.0 k.P -.-.z P P -.f f = = ",
"s s !.; d d x.z P e -.= 2 d = @+@+#+o d - ; / ~ 3 Q 2 $+[ ! 0.q K h r.H T.9 _.:.=.P f = d o p s ",
"y.@ @ I u d.N - M.f - - - - 2 | p p L [ p p e ' 9 = @.%+#.} z r K O /.h $.c.k.<.<.D c e f J = | ",
"B &+N.7.u N 9.= [ Q 2 ~ o | p ..[ L > > s - %.H :.P 6 a.%+f d 2 o E `. +[.t :.:._.:.j.0 -.#.= 2 ",
"b  .*+z X.).=+7 f - d | = J M.> s } M + a O / H.).c.k.k.:.c 0 z 2 c.`.E B._ S.t ).k.k.0 = 0 -.e ",
"q 1  .` _ 8.Z.@.O.K.* $+U.$+Q d M.> M Z ) (.Z.' u ).,.c.=.k.k.c j.= /.-+Y n.).S.'.v 0 _.<.D P e ",
"} ~   ` > i.i.:._.:.;+o.F.F.* P Q J [ p E K -+_ R.V.R.2.7.c.c j.-.D 2 $ E Y Q.S.).t &._.k.c.D c ",
"o [ 1 q s r.z.O.S.).S.{.v k.,.-.c e z d Z.=+9.V.Q.N c._ P.8.6.<.=.j.9 d Y 5 P.{.).u W ).&.=.2.<.",
"#.2 s > @ l.5 4 v t t n.c.c._.k.P 9 @.P x.' 5 i.{.K >+Q._ {.).W v O.o.Q H 5 5 ++q.*.c.&.7.&.6.j.",
"i ,+C.C.-+-+h ' Y H.E v k.k.&.:.W i.C.'+' % 5 H ~.)+/ l.l.Q.l.5 5 !+B.5 4 4 ' E % ' !+' ' '+t.~+",
"c 9 j.c -.= d | p k ; | ..} o 2 > 3 4 V I.&+y.I.G {+G ~ [ J #.5.%+F.0.]+I.n ~ M !.!.~ } o e p d ",
"f 2 j.d z | o ~ k } | ; } ....~ ~ q H G b &+%+o.F.o.'.{.;+K N _ F 5 o.> ' ~ G M !.A s !.!.2 t n.",
"d -.f e p = 2 | ..~ ....~ ~ ......%.s.;   U P D %+,.$.3.k.N _ _ h m.q.t.R $+0.M . 7.[.[.v {.}.d.",
"U.,.T.F.f f %+Q [ 5.! M.] @ . N *.++s.K.- G U.7 Q v $.[.N X b.K l. +C A.v f $+> , ;+4.$.{.}.4.b.",
"t o.c.v _.a.Q F.U.$+$+M.r ~ M K p.A.$ e g.M.Q a.6 a.$.4.b._ N d.) L.) =.K.* 6 $+~ 4.W }.4.N X X ",
"t W n.t c.W :.:.T.R -.z $+> L A.1.A..+f R g.p '.v $.}.).N ) 1.W (.K C F.F.:.R - ~ 4.4.).X K b.d.",
"n.).{.t {.t S.t R =.K.R f J 5.) f._ r.= B.@.e '.).W d.P.K N 1.l.r.& Z.k.k.&.K.P [.b.).)._ b.*.(.",
"u n.).).).S.v v 7.&.:.=.F.$+2 ) h z.5.  S ^+W '.n.:.b.d._ K  +h r.E -+_._.v k.P W d.P.P.b.1.%.(.",
"R.u n.u N W W t W S.t ).,.=.P o.E c.%+> F.&.c.m.d._ b.A.A.(.Z.r.9.9. +v v c._.T.8.(.K _ _ ) (.7.",
"7.h.*.%.n.u c.t P.t t 7.c.O.@.Q 5 u T.P t q.*.A.5 A.p.l.l.) L.) -+i =+W =.).&.k.q.p._ W A.A.) ) ",
"..-.p.H.4 C H.5 W.B.H.' v.Y v.Y 4 s.n.D ) Z.u.' Y 5 $ ~./+=+v 2 0.5.0.} O.C t.4 % % ~.C C.5 B.~.",
"s s k - -.2 ;+5 f o o - d o o p k k p c ; M.W.a.P P | -.z z o 2 | !.- | k | p o d z 2 k ..q   ;.",
"G { 7 ).d.++++)+I Q r - p ; k p ; s k j 4.A.9.- 2 > Q M.j P d L } ~ ~ } s ; G I X.Z.@.$+j { ] *.",
"a.}.).).d.%.q.3 J ! | } q ~ ; ..s   *.A.l.r.(+z 7 f %+! 5.k } o !.Z ;.Z ) ^.A.L.& i.T.f [ j > %.",
"W ).X P.N K & -+U.#.j 5.L q   V B 6.).A.e.1.H._.D P 5.e o #.M.j > ~ + + %.l.1.l.f.' k.F.K.5.h 1.",
"v P.K A.K & ) N a.%+Q 2 [ L q |.. %.) r.e.1.4 :.f k.a.j.P @.f #.2 5.> 2 ++l.l.) h v W k.R 2 l.A.",
"b.K %.K (.8.8.K =.-.P -.= p r } l E h  +r.-+s.t c.c.6 =.t O.* 7 P ..2 r W A.) r.r.t v v :.F.f.f.",
"_ K (.& e.K /  +t v <.j.c z - | ) h *.`.-+-+' k.S.n.S.t t v '.U.9 =.e = k ) f.-+v.% &.c.k.* f.h ",
"A.l.i.e./ Z.`.-+P.S.2.&.j.= e z  + +Z.e.-+m.m.u t n.n.R.S.W S.'._.<.j.= z )  +(+2 @.%.t _.f.L.-+",
"& (.h r.L.Z.$ Y H.%.t v =.9 c z  +-+e.W.i F 4 X.).n.n.S.).W W S.t '.=.D c W.i.P * K.P ).W 9.W.=+",
"%././ `.Y Y Y e.' w.1.v 9 [.* F.) i.W.s.4 H Y O d.P.%._+d.c.u u q.W p.% ' % n.k.:._.:.5 u 9.=+W.",
"B U ]  .+ Z + !.s ..p = d ' H E C 6.a.~ q ] U y.. ] :+R h H.u. .*.C.u.e.f A U l . ] q } Q d.s.' ",
"l l l b @ ] + q s ..2 o 2 - ).5 0 z j d q A q + r + 1 .   9 3 S A 0 t., b V B {+b >.1 ]+f P.&.' ",
"> V + <+{ b B , ~ ,._ K & n.i.t.O.T.* R P f = ` G { I 0.{.r.,+} U._ - } q S a.;+;+'.v {.}.4.d.) ",
"$+'.).&.).).b.P.b.N K d.& ) u t :.k.O.T.K.k.R @.%+7 #.J $+r.-+p ! K * [ } + a.4.}.).$.}.).P.b._ ",
"%+N P.X P.K {.b.%.).) l.e.O Z.v k.k._.=.:._.T.F.* K.U.%+%+L.W.p > K R = > ]+;+'.}.4.4.W ).1.N _ ",
"* _ N b._ _ 1.K A.A.) K / Z.u.t T.v _._._._._.:.=.O.o.f U.-+9.P [ 1.F.R 2 Q $.,.}.W ).X [.b.N 1.",
"a.K A.K A.A.A.A.) f.r.r.L. +9.&.&.n.c.O.c.c.v v c._.:.=.c L.r.9 2 h F.F.f 4.t v 4.d.).P.b._ K A.",
").A.l.l.l.h ) L.f.r.Z.Z.`.-+W.W W S.S.:.'.S.u c.t t {.{.R %.Y i %+-+=.:.$+).).).d.d.P.b.A.K u i.",
"b.f.L.h r.r.h 9.L.A.-+`.Y 9.m.).c.W Q.'.).n.W W ).).u S.t c.u.m.7 ,+k.t $.d.d.P.K N N _ f.1.u ) ",
"r.L.Z.K r.L. +=+`.E Z.E $ u.B.P.n.P.++u R.).P.n.u ).A.n.).t $ ' '.z.k.7.:.b.n.u K _ b.q.& A.i.) "};
