/* XPM */
static char * brown_wall_xpm[] = {
"48 64 590 2",
"  	c #665F60",
". 	c #6C6566",
"+ 	c #696062",
"@ 	c #6A6163",
"# 	c #746B6D",
"$ 	c #2B2425",
"% 	c #261F20",
"& 	c #392F31",
"* 	c #52474C",
"= 	c #594E53",
"- 	c #5C5156",
"; 	c #615759",
"> 	c #605558",
", 	c #685D60",
"' 	c #262022",
") 	c #352F31",
"! 	c #605759",
"~ 	c #645B5D",
"{ 	c #6D6466",
"] 	c #6C6264",
"^ 	c #71686A",
"/ 	c #332A2C",
"( 	c #2D2426",
"_ 	c #3C3335",
": 	c #665D5F",
"< 	c #5D5456",
"[ 	c #5E5557",
"} 	c #635A5C",
"| 	c #605658",
"1 	c #685F61",
"2 	c #595052",
"3 	c #261D1F",
"4 	c #292222",
"5 	c #282121",
"6 	c #4F4449",
"7 	c #52474A",
"8 	c #53484B",
"9 	c #5C5053",
"0 	c #504449",
"a 	c #53474C",
"b 	c #655B5C",
"c 	c #766A6E",
"d 	c #716569",
"e 	c #6A5E62",
"f 	c #6C6063",
"g 	c #6A5E61",
"h 	c #291F21",
"i 	c #53494B",
"j 	c #5B5153",
"k 	c #564C4E",
"l 	c #574D4F",
"m 	c #615657",
"n 	c #342C2F",
"o 	c #2C2427",
"p 	c #272021",
"q 	c #685F60",
"r 	c #635A5B",
"s 	c #5F5557",
"t 	c #6C6064",
"u 	c #6F6367",
"v 	c #73676B",
"w 	c #776B6F",
"x 	c #776B6E",
"y 	c #5E5256",
"z 	c #5D5155",
"A 	c #5F5357",
"B 	c #615559",
"C 	c #685C60",
"D 	c #62565A",
"E 	c #665A5E",
"F 	c #63575B",
"G 	c #65595D",
"H 	c #473B3F",
"I 	c #3F3838",
"J 	c #474040",
"K 	c #504348",
"L 	c #52454B",
"M 	c #4F4248",
"N 	c #584B50",
"O 	c #5B4E51",
"P 	c #5A4D50",
"Q 	c #706668",
"R 	c #72686A",
"S 	c #73696B",
"T 	c #6E6466",
"U 	c #685E60",
"V 	c #2A2022",
"W 	c #4E4748",
"X 	c #30292A",
"Y 	c #2C2324",
"Z 	c #6C6164",
"` 	c #675D5F",
" .	c #655B5D",
"..	c #645A5C",
"+.	c #251B1D",
"@.	c #615859",
"#.	c #5A5152",
"$.	c #5E5556",
"%.	c #5D5355",
"&.	c #62585A",
"*.	c #3B3133",
"=.	c #64585C",
"-.	c #675B5E",
";.	c #3F3336",
">.	c #3F3537",
",.	c #463C3E",
"'.	c #4F4547",
").	c #52484A",
"!.	c #55494C",
"~.	c #574B4E",
"{.	c #594D51",
"].	c #54484C",
"^.	c #706867",
"/.	c #736B6A",
"(.	c #6E6665",
"_.	c #6F6766",
":.	c #716869",
"<.	c #5F5657",
"[.	c #595051",
"}.	c #4E4546",
"|.	c #433A3B",
"1.	c #413839",
"2.	c #2C2526",
"3.	c #695F60",
"4.	c #695F61",
"5.	c #706468",
"6.	c #695D61",
"7.	c #6E6266",
"8.	c #63595B",
"9.	c #201618",
"0.	c #544B4C",
"a.	c #584F50",
"b.	c #473E3F",
"c.	c #282122",
"d.	c #594F51",
"e.	c #5E5456",
"f.	c #665B5C",
"g.	c #6C6162",
"h.	c #716667",
"i.	c #6D6263",
"j.	c #6B6061",
"k.	c #6A6061",
"l.	c #3C3234",
"m.	c #473D3F",
"n.	c #382E30",
"o.	c #3D3335",
"p.	c #504648",
"q.	c #4D4345",
"r.	c #554B4D",
"s.	c #716968",
"t.	c #6A6261",
"u.	c #696160",
"v.	c #6A6162",
"w.	c #4C4344",
"x.	c #494041",
"y.	c #42393A",
"z.	c #3B3435",
"A.	c #6B6163",
"B.	c #716769",
"C.	c #6B5F63",
"D.	c #665C5E",
"E.	c #241B1C",
"F.	c #463D3E",
"G.	c #362F30",
"H.	c #736768",
"I.	c #716566",
"J.	c #6A5F60",
"K.	c #605657",
"L.	c #3E3436",
"M.	c #352B2D",
"N.	c #3A3032",
"O.	c #4A4042",
"P.	c #4B4143",
"Q.	c #4E4446",
"R.	c #68605F",
"S.	c #675F5E",
"T.	c #655C5D",
"U.	c #4A4142",
"V.	c #453C3D",
"W.	c #5B5455",
"X.	c #645A5B",
"Y.	c #6D6364",
"Z.	c #6B6162",
"`.	c #6F6567",
" +	c #32282A",
".+	c #695E5F",
"++	c #5F5556",
"@+	c #5A5052",
"#+	c #3A3132",
"$+	c #493F41",
"%+	c #645D5D",
"&+	c #625B5B",
"*+	c #615A5A",
"=+	c #6A6363",
"-+	c #574E4F",
";+	c #483F40",
">+	c #4F4546",
",+	c #443B3C",
"'+	c #5D5455",
")+	c #685E5F",
"!+	c #6C6263",
"~+	c #443A3C",
"{+	c #453B3D",
"]+	c #403638",
"^+	c #43393B",
"/+	c #584E50",
"(+	c #352C2D",
"_+	c #312829",
":+	c #5C5555",
"<+	c #5D5656",
"[+	c #62595A",
"}+	c #4F4647",
"|+	c #473D3E",
"1+	c #3E3536",
"2+	c #625859",
"3+	c #675D5E",
"4+	c #483E40",
"5+	c #403738",
"6+	c #3D3435",
"7+	c #675E5F",
"8+	c #5C5254",
"9+	c #362C2E",
"0+	c #645B5C",
"a+	c #362D2E",
"b+	c #504949",
"c+	c #5B5454",
"d+	c #575050",
"e+	c #5A5353",
"f+	c #585151",
"g+	c #43393A",
"h+	c #514849",
"i+	c #5E5455",
"j+	c #3B3233",
"k+	c #413739",
"l+	c #372D2F",
"m+	c #625B5C",
"n+	c #544A4C",
"o+	c #514749",
"p+	c #4C4244",
"q+	c #382F30",
"r+	c #2B2223",
"s+	c #2E2426",
"t+	c #554E4E",
"u+	c #564F4F",
"v+	c #403939",
"w+	c #4D4446",
"x+	c #4F4648",
"y+	c #5D5657",
"z+	c #473E40",
"A+	c #433A3C",
"B+	c #4A4143",
"C+	c #2D2225",
"D+	c #4E4346",
"E+	c #5B4F52",
"F+	c #584C4F",
"G+	c #4C4146",
"H+	c #423B3B",
"I+	c #393232",
"J+	c #3B3537",
"K+	c #42373C",
"L+	c #44393E",
"M+	c #514A4A",
"N+	c #4B4444",
"O+	c #332C2C",
"P+	c #2A2323",
"Q+	c #221B1B",
"R+	c #322B2B",
"S+	c #2D2626",
"T+	c #463D3F",
"U+	c #342A2C",
"V+	c #564F50",
"W+	c #403739",
"X+	c #241B1D",
"Y+	c #2C2325",
"Z+	c #574E50",
"`+	c #302729",
" @	c #221B1C",
".@	c #231C1D",
"+@	c #272020",
"@@	c #635C5D",
"#@	c #625C5E",
"$@	c #2E282A",
"%@	c #736A6C",
"&@	c #564D4F",
"*@	c #2A2123",
"=@	c #393031",
"-@	c #231D1F",
";@	c #352E2E",
">@	c #261F1F",
",@	c #474041",
"'@	c #615558",
")@	c #65595C",
"!@	c #3B2F32",
"~@	c #292223",
"{@	c #5A5051",
"]@	c #6D6165",
"^@	c #72666A",
"/@	c #292124",
"(@	c #271F22",
"_@	c #292325",
":@	c #251F21",
"<@	c #6D6365",
"[@	c #6D5F67",
"}@	c #706066",
"|@	c #756368",
"1@	c #786E70",
"2@	c #221C1D",
"3@	c #746A6C",
"4@	c #6D6666",
"5@	c #4F4848",
"6@	c #574D4E",
"7@	c #5C5253",
"8@	c #3D3334",
"9@	c #383132",
"0@	c #221C1E",
"a@	c #6A6062",
"b@	c #63595A",
"c@	c #726869",
"d@	c #6E6465",
"e@	c #756B6D",
"f@	c #453E3F",
"g@	c #241E20",
"h@	c #594C4F",
"i@	c #695C5F",
"j@	c #6D6265",
"k@	c #6F6366",
"l@	c #766A6D",
"m@	c #716368",
"n@	c #706467",
"o@	c #605457",
"p@	c #383131",
"q@	c #776D6F",
"r@	c #3C3334",
"s@	c #615758",
"t@	c #73696A",
"u@	c #766C6D",
"v@	c #504647",
"w@	c #463C3D",
"x@	c #292021",
"y@	c #483F41",
"z@	c #372E2F",
"A@	c #3E3435",
"B@	c #332A2B",
"C@	c #241D1D",
"D@	c #5C5354",
"E@	c #6B6263",
"F@	c #716768",
"G@	c #746A6B",
"H@	c #776D6E",
"I@	c #493F40",
"J@	c #4D4344",
"K@	c #413738",
"L@	c #41383A",
"M@	c #453C3E",
"N@	c #2A2324",
"O@	c #4C4545",
"P@	c #6F6566",
"Q@	c #706667",
"R@	c #453B3C",
"S@	c #3F3637",
"T@	c #251E1F",
"U@	c #3B3234",
"V@	c #3E3537",
"W@	c #372D2E",
"X@	c #322B2C",
"Y@	c #564D4E",
"Z@	c #292022",
"`@	c #443B3D",
" #	c #494042",
".#	c #453D40",
"+#	c #4D4646",
"@#	c #534A4B",
"##	c #4B4244",
"$#	c #554E4F",
"%#	c #382E2F",
"&#	c #413A3A",
"*#	c #42393B",
"=#	c #484043",
"-#	c #594F50",
";#	c #3A3133",
">#	c #393032",
",#	c #3D3436",
"'#	c #2E2526",
")#	c #423839",
"!#	c #3B3132",
"~#	c #3B3434",
"{#	c #3E3737",
"]#	c #3F3638",
"^#	c #423A3D",
"/#	c #4C4345",
"(#	c #3C3233",
"_#	c #2B2224",
":#	c #42383A",
"<#	c #33292B",
"[#	c #50494A",
"}#	c #352B2C",
"|#	c #2F2829",
"1#	c #342D2D",
"2#	c #463F3F",
"3#	c #302A2C",
"4#	c #3F393B",
"5#	c #392E33",
"6#	c #43393E",
"7#	c #41373C",
"8#	c #3B3136",
"9#	c #3F353A",
"0#	c #32292A",
"a#	c #463C41",
"b#	c #42383D",
"c#	c #3F3439",
"d#	c #3E3338",
"e#	c #2D292A",
"f#	c #282425",
"g#	c #272324",
"h#	c #393335",
"i#	c #484141",
"j#	c #3A3031",
"k#	c #281F21",
"l#	c #251C1E",
"m#	c #342B2D",
"n#	c #312729",
"o#	c #261D1E",
"p#	c #281F20",
"q#	c #52494B",
"r#	c #534A4C",
"s#	c #40393A",
"t#	c #251E1E",
"u#	c #211A1B",
"v#	c #272123",
"w#	c #2C2628",
"x#	c #3D3636",
"y#	c #50454A",
"z#	c #52494A",
"A#	c #332C2D",
"B#	c #2D2627",
"C#	c #655E5E",
"D#	c #2A2122",
"E#	c #251C1D",
"F#	c #2A2221",
"G#	c #605758",
"H#	c #574C4F",
"I#	c #595252",
"J#	c #2F2828",
"K#	c #5C5154",
"L#	c #64595C",
"M#	c #5B5253",
"N#	c #342B2C",
"O#	c #231C1C",
"P#	c #75696C",
"Q#	c #63575A",
"R#	c #605458",
"S#	c #574B4F",
"T#	c #554C4D",
"U#	c #736968",
"V#	c #776D6C",
"W#	c #3D3135",
"X#	c #726967",
"Y#	c #584F4D",
"Z#	c #403637",
"`#	c #2D2729",
" $	c #665C5D",
".$	c #756B6C",
"+$	c #322829",
"@$	c #534C4C",
"#$	c #4E4747",
"$$	c #302628",
"%$	c #494242",
"&$	c #4B4243",
"*$	c #4D4445",
"=$	c #504748",
"-$	c #2D2325",
";$	c #2C2525",
">$	c #5D5354",
",$	c #362A2D",
"'$	c #282223",
")$	c #5B5152",
"!$	c #33292A",
"~$	c #2F2627",
"{$	c #3B3035",
"]$	c #443D3D",
"^$	c #4A4343",
"/$	c #554B4C",
"($	c #544A4B",
"_$	c #312728",
":$	c #372C31",
"<$	c #372D32",
"[$	c #4A3E42",
"}$	c #4F4347",
"|$	c #3C3535",
"1$	c #2D2425",
"2$	c #271E1F",
"3$	c #2E2728",
"4$	c #302728",
"5$	c #302929",
"6$	c #453E3E",
"7$	c #362D2F",
"8$	c #20191A",
"9$	c #201719",
"0$	c #382F31",
"a$	c #271E20",
"b$	c #241D1E",
"c$	c #22181A",
"d$	c #241A1C",
"e$	c #211719",
"f$	c #5F5658",
"g$	c #6E6566",
"h$	c #766D6E",
"i$	c #736A6B",
"j$	c #696061",
"k$	c #4E484A",
"l$	c #665D5E",
"m$	c #756C6D",
"n$	c #665A5F",
"o$	c #6F6667",
"p$	c #605857",
"q$	c #534B4A",
"r$	c #4F4746",
"s$	c #4C4243",
"t$	c #211B1D",
"u$	c #504A4C",
"v$	c #3F3536",
"w$	c #544D4D",
"x$	c #565052",
"y$	c #524C4E",
"z$	c #534D4F",
"A$	c #443A3B",
"B$	c #392F30",
"C$	c #312A2B",
"D$	c #524B4B",
"E$	c #433C3C",
"F$	c #7B7172",
"G$	c #4B4142",
"H$	c #514748",
"I$	c #483E3F",
"J$	c #312A2A",
"K$	c #3A3333",
"L$	c #41363B",
"M$	c #483D42",
"N$	c #403A3C",
"O$	c #2E2527",
"P$	c #2B2424",
"Q$	c #211819",
"R$	c #6D6465",
"S$	c #201718",
"T$	c #1F1617",
"U$	c #716866",
"V$	c #362C2D",
"W$	c #685F5D",
"X$	c #282224",
"Y$	c #4E4547",
"Z$	c #433D3F",
"`$	c #262021",
" %	c #2E2829",
".%	c #393134",
"+%	c #473F42",
"@%	c #2B2527",
"#%	c #3B3738",
"$%	c #3F373A",
"%%	c #3E3639",
"&%	c #3A3336",
"*%	c #40393C",
"=%	c #3E373A",
"-%	c #3E383A",
";%	c #413B3D",
">%	c #494345",
",%	c #484244",
"'%	c #474143",
")%	c #302528",
"!%	c #2F2427",
"~%	c #635C5C",
"{%	c #6A6364",
"]%	c #6D6667",
"^%	c #6C6365",
"/%	c #352C2E",
"(%	c #6B6465",
"_%	c #342D2E",
":%	c #6E6768",
"<%	c #70696A",
"[%	c #655E5F",
"}%	c #241E1F",
"|%	c #72696A",
"1%	c #796F70",
"2%	c #595355",
"3%	c #443D3E",
"4%	c #4F494B",
"5%	c #5E5757",
"6%	c #2F2527",
"7%	c #4D4647",
"8%	c #2F2526",
"9%	c #423C3E",
"  . + @ # $ % & * = = - ; > , $ ' ' ) ! ~ @ { ] # ^ $ / ( _ : < [ } | 1 < ! 2 3 4 5 6 7 8 9 0 a ",
"b b c d e f g h i j k l m n o p q r ' s ; t u v w c x y z A B B C D E C F G G H I J K L M N O P ",
"Q R S T R R T U s V W X Y Z , ` `  . ...+.@.#.$.%.&.*.z A E F z =.G B -.;.>.>.>.,.'.).!.~.{.].z ",
"^./.(._.:.<.[.}.|.1.2.3...4.] 5.6.7.t ..8.j 9.0.a.b.c.d.e.f.g.h.i.j.k.l.m.>.>.n.o.p.q.'.p.p.r.i ",
"s.t.u.^.v.w.x.1.|.y.z.k.A.A.B.6.C.e C D...s | [.E.F.G.H.I.i.g.j.J.f.K.8.>.L.M.*.N.O.P.p.q.Q.p.p.",
"R.t.R.S.T.U.w.F.V.1.W.X.3.Y.Z.q.d.`... .` 8.; ; |  +T..+.+++b ; | e.e.@+& o.*.N.#+U.$+O.O.O.m.q.",
"%+&+*+=+v.-+;+>+,+x.'+<.r )+!+,+~+{+,+y.1.]+^+l.*.*.v.` &.; s @+j l /+/+).>.N.& (+_+,+m.O.$+m.P.",
":+<+*+<+<.[+}+|+|.1+a.[.$.2+3+y.4+{+1.5+6+l.o.~+N.& 7+e.e.8+@+d.r.l i i p.N.& 9+w.0+a+V ^+{+4+4+",
"b+c+d+e+f+#.b.|.g+c.h+0.d.i+i+]+>.4+>.6+j+k+o.& & l+m+n+n+l n+n+o+p.q.p+O.4+q+r+E d N.s+s+^+^+~+",
"t+t+t+t+b+:+u+g+v+4 w+x+@+s *.l.L.>.L.n.*.k+N.l+n.l+y+@+/+o+p.Q.p+O.z+A+B+~+C+D+E+F+G+H+I+J+K+L+",
"u+M+N+O+P+Q+R+p S+5 T+z+p.).N.{+*.*.*.L.l+& n.n.l+U+V+p.p.4+O.4+{+,.A+W+X+Y+Z+`+ @.@p +@=+@@#@$@",
"@+s  .D.D.R Q @ %@&@3 *@q.P.^+q+q+=@=@& N.n.l+2.-@' $ '.4+p.p+;@>@+@,@8+s '@E C )@!@~@' {@j  .` ",
"f.j.U  .D.A.] 7.v ]@5.^@Q /@(@' _@' :@; <@] <@[@}@|@1@2@2@3@R 4@+@5@6@'.d.7@%.@+b 8@9@0@++U U a@",
"b@b )+c@d@B.e@T T `.3@q.b.f@g@P.h@i@j@k@g f l@m@n@o@L.p@5 `.q@e@4+k i /+p.l j d.j ^+r@:@<.$.s@3.",
"%...b@b 3.!+c@t@u@|+v@|+w@5+x@A+T+y@p+'.i r.; @+; & & z@p k.A@=@B@w.'.Q.).i j k @+Q.& C@b+/+D@E@",
"j d.i+s@!+)+F@G@H@I@>+J@K@y.5+W+L@M@4+O.p+r.r./+j o.n.(+N@K.8@=@_+;+o+O.{+p+i o+j n+N.5 O@l #.D@",
"i Q.d.%.++3+d@P@Q@R@|.w.1.1.S@T@U@V@^+^+p+q.p.n+/+l+l+W@X@Y@#+z@Z@T+`@T+ #q.r.Q.$+p+n.L..#+#@#-+",
"o+/+k l j K.k.b Q@g+y.1.5+S@1+=@T+_ L@##`@$+p+l n+).l+(+q+$#W@%#;@&#*#`@M@,.,.p+Q.P.o.& =#y@O.r.",
"4+O.q.i r.-#++s@)+I@S@S@6+6+r@j+;#U@>#,#W+{+$+r.O.e.M.a+'#$#)#!#~#{#]#L@A+,.m.,.r.p+'.]+^#A+P.'.",
"W+M@y@/#o+k %.D@s@A@#+r@(#r@#+q+_#;#;#U@_ $+:#$+Q.o+n.U+<#[#}#|#L@,#,#W+,#V@T+A+4+'.q.1#2#*#,.o+",
"]#W+*#T+##q.i /+d.k+z@#+(#S@q+z@3#4#5#6#7#8#9#`@O.q.n.0#_+0._+'#a#7#b#c#d#U@M@V@,.m.e#f#g#h#&#i#",
"V@]#W+L@M@$+'.).@+k+q+0#j#q+'#1+0+#+G.k#_#l#m#V@4+O.n#x@_+o#p#_+k#*@Y+ @$ k#U@z+'.Q.q#r#B+s#4 t#",
"y+u#v#w#x#6 y#z#z#(+A#B#B#}.0.@+0+0+0+v+5 -+T.&.a+o#@#n+l e.e.e.e.*.:@O.,.O.p+'.).o+i @+n+8 l k ",
"s@X.7+0+C#T@~@r+g@-@v#:@:@D#E#F#' :@0@5 5 @.q `.=@G#G#U @+| e.| <#n.$@).p+n+r.r./+n+n+r.l H#d.d.",
"&.&.D.; j I#J#/+n+k r.d.@+j d.K#K#L#%.j 8+; U+@@o#-+[.M#$.G#[+3+j+(+N#O#+#'.O.P.q.n+l d.j %.e.&.",
"P#f f Q#K@5+6+8+D@Y@8+8+8+8+@+| A A =.R#A A S#' '.d.0.T#a.../+s@*.>.M.(+b.4+p+Q.Q.p.i k l #.d.| ",
"U#V#H@R@K@6+_+d.$.-+@+ .%.| e.8.R#=.B B F z W#0@P.n+}.}+T#l j {@%. +n#0#U.,.P.P.O.P.o+).r.a.d.@+",
"Q@Y.X#Y#Z#g+`#z#l 8+j | d.#.D@K.2+X. $k..$>.U+g@*#z+##p+P.i )./+@+4+n#+$-@_ `@M@*###p+).d.).r.k ",
"3+3.Y.P@r@]+<#@$O@#$h+M#@#M#-+j D@<. $4.n.N.<#k#W+*#/#4+q.p+p+i o+d.M.$$s+v+*#`@ #y@).O.Q.p.n+k ",
"X.b )+P@<.l+l+%$i#%$&$*$=$=$h+n+-+#.++e. +*.$$_ V@;#V@$+{+4+i o+r.p.@+-$ +;$U@`@*#M@m.O.p+4+p.i ",
">$++3.3+2+,$'$O@`@*#`@T+y@##/#r.i k /+)$!$~$_+{$U@,#z+_ ]#]+~+Q.q.o+'.j s+5 ]#T+*#W+A+^+m.q.$+Q.",
"a.[.2+K.Z.q+x@4 J ]$]$v+2#2#i#^$n+'./$($_$+@5 :$a#8#<$U@_ a#b#6#[$}$*$u+O#5 5 x#|$~#z+m.{+m.~+o+",
"1$2$~@~@3$4$(++@;$t#5$J ^$^$6$%$A+7$~@8$p >@5 .@X+9$/ 0$0$U@0$Z@Z@a$b$5 4 4 +@5$>@+@a$h h c$d$e$",
"i '.o+i r.d.j | e.s ; | 8...%.@+f$3 4 :.g$h$i$g$E@j$E@0+$.#.a.'+T#k$[+l$g$m$0+T.D.D. ...%.k e.j ",
"l @+o+j /+| %. .s ..| ; ..8.8.n$E C O#E@o$h$T#*$=$*$x.F.&$j+6+r@Y v#*$<.p#0+E@T.D.Q &.D.D.@+,.:#",
"j r.l k e.d.@+| 8. .8.8. . .8.8.8.l.P+p$S.(.q$r$T#w.b.>+s$6+r@r@(+r+|$t$u$M#[+T.d@R@U.U.;+F.V.5+",
"r#/#+#5@l Y@T#-+$.'+G#D@!+Z.d@6+8@v$N@#$e+E@@#z#-+;+b.U.6+1.1+j+q+0#c.p@J t+M#<.7+&$,+b.F.V.,+1+",
"M@w+2#J O.}+-+=$@#M#M#D@s@b  $j+!#j#$ w$c+D@-+}+}.}+b.,+1+r@6+5+z@B@G.N+#$b+}.M#0+,+|.V.,+6+1.1.",
"M@A+L@M@z+H+%$%$+#M+r./+M#K.b@=@#+=@u#t+M+c+:+x.;+b.V.y.6+z@#+|.N.*.c.5@5@%$M+e+0+,+,+y.1.j+1+5+",
"L@*#T+M@T+M@`@M@M+N+#$M+Y@#.'+z@a+r@N#x$-@y$z$x.g+A$5+S@j+6+#+q+}#B$C$^$^$6$#$D$U.1+y.y.r@1+o.N.",
"W+L@*#*#*#`@y@y@E$6$%$N+=$M#[.z@(+D#'+6.^@F$A$x.)#G$1+5+r@j+0#(+}#+$3$i#i#J ^$D$|.5+S@S@1+#+l.N.",
"V@W+L@W+,#A+A+M@A+`@M@*#/#q.n+*$5$2#T#K.H$|+I$r+5+r@1+=@=@N.<#N#_+_+J$J J 2#i#+#]+N.*.r@r@n.N.{+",
"{+k+~#K$v+L$M$]$]#M@]$E$2#O@@$u+5 I +#($w@A@8@=@5 p@!#q+q+z@B@n.4$1$~$H+N+N$6$^$A@!#r@A$j#=@z@z@",
"8.r.I+t#4 c.T@5 O$l#t#+@P$;$P$;$4 P+v+W G.C$B#p#;$5 $ E.Q$~$;+@+[+'+[+&+O@c.Q+4 % % E.c.~@x@E#E.",
"&.&.s 8+r.[.&$5 l %.%.8+j %.%.e.s s e.i ; D@'#}+n+n+| r./+/+%.@+| D.8+| s | e.%.j /+f+s 8.` U A.",
"E@R$z#y.5+v$v$S$@.-+D z A ; s e.; &.s r ,+=@_+8+[.<.-+D@r n+j =.G E E G F ; E@@.Z#!$@$M#r R$!+8@",
"}+V.y.y.5+(#A@o##.G#| ..`  .; 8.&.U o.=@q+N#T$/+z#Y@T#G#'+s ..%.D.4.A.4.n.L.=@B@B$W@+#Y@$.r K.(#",
"|.y.1.S@6+*.& 4$@#a.r '+b@3+)+U$S ~+^+j#V$#+g@O.p.n+'+k %.a.D@r <.0+k.k.(#q+#+q+a+p#^$5@#$'+(+#+",
";+S@j+=@j+& n.6+}+T#-+[.++b@3+W$T l.n.}#V$#+X$P.l p+}+o+n+0.Y@a.[.'+K.{@v$q+q+z@(+;+H+^$M+[.q+=@",
"1+j+l.*.N.]+]+j+q.r.n+r.d.i+s@X.R  +(+0#N#4$_@M@z+z+Y$N+]$O@b+z#n+8.{@s@A$=@z@N#N#Z$J J %$=$a+a+",
"r@j+N.& 9+*.U+0#M@y@Q.o+i /+8+| z@(+o.n#$$4$p###`@L@`@M@M@y@ #r#'.q.k d.s z@a+4$P$>@6$2#^$h+a+(+",
"=@q+l+9+U+<#n#4$]#`@$+m.o+d.k /+0#0#<#9+$$r+r+W+M@L@L@V@`@A+`@ #O.Q.o+d./+z@0#T$f+@$K$]$i#a+B@4$",
"& N.(+N#B@<#-$s+t#K$M@y@q.'.i /+0#4$9+'#1$Y X${#*#L@L@`@*#A+A+`@M@ #q.p.i '#;@D$b+#$D$&#H+_+'#~$",
"l.M.U+n#s+s+s+9+`$ %.%+%'.U.h+H$n.l+'#P+4 0@@%#%$%%%&%*%=%2#I -%J+;%I+:@' :@4#>%,%'%,%5 I _+)%!%",
"S `.] <@a@4.a@D.&.8.e.d.j ' 0@X V ~+}+~%C#{%]%%@T ] ^%q#/%t#S+(%z.~@S+_%$#:%]%<%. {%[%&+u+5+_@' ",
"v v v d t ] a@` &.8.@+%.@+8+^+5 [#V+r j ` Q ` a@D C.e u 6.'.}%B.Q ).Q+7+o$:.|%j$o$v.q l$Y@S@|+p ",
"<.:.k.1%R$o$|%7+0+w.r@j+B$)#W@ @O@+#b+M+D$t+d+4@E@R$@.[+F.N#2$&+@#r@2%&+C#^.}+&$&$x.;+F.V.,+5+z@",
"M#x.g+|+y.y.1+S@1+6+j+5+B$%#K@3%%$^$O@+##$^$M+@$T#z#a.#.M#N#4$:+G#j+4%<+&+u.}+,+V.y.b.V.y.S@1+r@",
"T#6+S@1.S@j+F.1+(#g+z@q+9+>.<#J ^$^$i#N+%$i#+#5@b+#$@#T#T#B@'#:+<.j+u$d+5%l$&$x.V.,+,+|.y.#+6+r@",
"h+r@6+1+r@r@#+j+j#j#z@j+U+<#6%]$+#J i#i#i#i#i#%$N+O@*$Y@@#4$_+D$$.#+k$M+f+-+b.w.V.|.y.1.U.1+6+#+",
"}+j+=@j+=@=@=@=@z@a+N#N#B@0#_+6$6$v+2#O@2#2#J J 2#i#B+q.i B@N#7%[.(+5@5@t+,+w@I@,+5+y.S@1+r@j+=@",
"y.=@q+q+q+(+z@B@a+N#<#<#n#4$'#H+A+`@`@B+ #`@W+z+M@M@T+T+q#l.s+1$T#4$N+,%M#y.y.y.5+5+S@1+=@j+K@W@",
"1+a+B@(+N#N#(+_+B@=@$$n#s+_+r+&#z+A+U@ #*#L@A+A+*#*#W+`@M@4+6%r+z#2$^$Z$b.5+5+S@j+6+6+r@a+#+K@%#",
"N#B@<#*.N#B@0#~$n# +<# +-$8%-@]#L@]#x#W+V@*#]#v+W+*#>#L@*#,.-$h x.D#^$9%G$1+)#K@j+r@1+A@B$=@W@%#"};
