/* XPM */
static char * wall4_xpm[] = {
"48 64 91 1",
" 	c #AAAAAA",
".	c #B4B4B4",
"+	c #ADADAD",
"@	c #AFAFAF",
"#	c #BEBEBE",
"$	c #494949",
"%	c #414141",
"&	c #5D5D5D",
"*	c #888888",
"=	c #939393",
"-	c #989898",
";	c #9F9F9F",
">	c #9D9D9D",
",	c #434343",
"'	c #5B5B5B",
")	c #A5A5A5",
"!	c #B1B1B1",
"~	c #B9B9B9",
"{	c #555555",
"]	c #4B4B4B",
"^	c #636363",
"/	c #A8A8A8",
"(	c #9A9A9A",
"_	c #9B9B9B",
":	c #A3A3A3",
"<	c #ACACAC",
"[	c #3F3F3F",
"}	c #444444",
"|	c #838383",
"1	c #868686",
"2	c #959595",
"3	c #BFBFBF",
"4	c #B7B7B7",
"5	c #8C8C8C",
"6	c #8E8E8E",
"7	c #585858",
"8	c #BABABA",
"9	c #C1C1C1",
"0	c #969696",
"a	c #A0A0A0",
"b	c #747474",
"c	c #686868",
"d	c #757575",
"e	c #818181",
"f	c #919191",
"g	c #BCBCBC",
"h	c #464646",
"i	c #515151",
"j	c #3E3E3E",
"k	c #606060",
"l	c #A2A2A2",
"m	c #A7A7A7",
"n	c #676767",
"o	c #727272",
"p	c #898989",
"q	c #909090",
"r	c #B6B6B6",
"s	c #6F6F6F",
"t	c #6C6C6C",
"u	c #B2B2B2",
"v	c #353535",
"w	c #8B8B8B",
"x	c #7E7E7E",
"y	c #797979",
"z	c #6D6D6D",
"A	c #3C3C3C",
"B	c #656565",
"C	c #5E5E5E",
"D	c #7A7A7A",
"E	c #7F7F7F",
"F	c #535353",
"G	c #777777",
"H	c #717171",
"I	c #626262",
"J	c #6A6A6A",
"K	c #5A5A5A",
"L	c #848484",
"M	c #7C7C7C",
"N	c #474747",
"O	c #4C4C4C",
"P	c #393939",
"Q	c #565656",
"R	c #505050",
"S	c #3A3A3A",
"T	c #C4C4C4",
"U	c #C3C3C3",
"V	c #4E4E4E",
"W	c #373737",
"X	c #C9C9C9",
"Y	c #343434",
"Z	c #C6C6C6",
" .+@#$%&*==-;> $,,';)@.!#~${]^/(_:><(;=[},|1*2|*",
"))34<@<}*256>7],<:,_;@.8939-0(>>/;)/a::bcde1e6=f",
"48g.88. _h|i$! //)):ja2_-ak0()a0l:>mnnnnoe1p5q*0",
"~#r48>=est]<:<!r u@:l2vwfd}f()@4!++^bnn&^|xe||w*",
"8@+~@xytsz^+@@~ +</m:_>=Ab'84!@+<)>lcB7kCyD|xE||",
"<@< mDxbot-:<u@xfr:)/l;;>Fm  _);>((=C^kCkDGyyybx",
")la@@qGeHy(>: !HsHHztczIkk@/a;_=26qq1nC&7iHbyGbD",
"-(a(>l|bsnf=_a/zdHtJBI^sC& ((0=fw6**|C&Kx)KhzHdd",
"L0q2f2dsz}1wf((cndnBIJ^&&':pp6ppL|xMyd&N)4COOzzs",
"5555L-6zJ}E|=_k^BnB&kJC'&'_=qL|EMydsDs]E=6xzCBzH",
"61M{hPF,],bd|1CHkkkB'&&&'Qq||dydHosJA$qRSA,%@):R",
"=_)mm84@g6[hxDz&&CC&C&']j,$ed|M7[%G0_>)/:kh,=2)/",
")+ )m@!u8!r~4h,,N,%;u!uu.8TAA#8.%|6ef0-=)^CA_  +",
"l) 8.~3..r#xdb[Dq u.<@34r_B&,rU3d5*q|62f2z^%>_;<",
"-:l)<!8g9b|boJ}sbGMe*w;=;C&',+BC{xeE1*25=E&ALq-!",
"2f(;! ~#UGexJzJJtodyMwwq2B&7N>^CiGLyHM*L2pC,x62-",
"*Ef-_/.r4Hsxttc[InzzMx|pq''K{6k'}bHbyxwEGM&nbEpq",
"Lq562>+)4zztJcnCb^tMHGM6p1'7&6K'7tzHoooMED^CyGyw",
"dyx*wf_; GccBB^IkICBJHGwy(7KO6tkInctsobowMeJssDe",
"JoGxL5--;Bk^I^k&NkkI^GtGEL&Q{1QRtBBJBnbsdexQbzoL",
"cJzbMx*qft'kIc&'FJCHz^JHyx&FiwiOdzscnIonobRNhItG",
"ncJtoGe1=t&FC&On)k',NjQndyi}i[,i,h$S$,IdeE*pDt}j",
"_P}OB|L**7QOOew=)))J,qmaK[pp6((((k%yoyMe1L*=p*65",
";: )m[hN[j}%%hjh,%A,,a<rC;; =>(>{&R1Mpwwqppw66ff",
"aam;2=Vqp5wf=2f00:-20;Q)[q=0_;l/I7QSEeyDxp6f2-(a",
"#@@aJJB0-60000=>((l_((5,efw5f:q;Ic77ddMEE|*562f>",
"89UHJBif_q=)->(l_l>>a0^ADpe|562=-FiFDoDDyDL1wff=",
"4u8qczV*602>f2->a:m+3cQ[zdMMD*1q=diij^HozMM1f1w5",
"/<ur^c{pxe10p0q2->m<&k{,JzxdxMM*Lf7ROJzHyG1yE|p5",
":) r>''yGyMELL1pq2_(FIR^nknGHd*Lw|=]F$IHzobyMd|*",
"-_</a7hxHzHbGMxw*5q2FViIIBd^ccsExLe2O,cbzJszbxGE",
"f=a>@&}}dHHJbbGDpewpR%,'d^&I^dsHyeE6S,,B^IdbHbsL",
"]%hhVR7%$jRdDDoysKhW,[,AAv{&&I&}}%j,}}%R[%%}}PAW",
"*eL*wf2>(_;>l:-=>[}8rU#r!+!)_2f(5|l/r9)mmm):-5(2",
"6=L2q>-)_:>;:llm)/S!4U5ELEybMIB^$}E>,)!mm4amm=ot",
"2w65(f=>l)ll))lll^h; rp|5xdeMB^^7N^S10lm.HDDGboJ",
"pxE|665q_(;-!@.B^nNe2!p*qGdDBtnI&F}&d50> MHdboHn",
"oEbdy|qLp00-;)mIkC$w0-q|e|dHn^BJ'{'MeLe0)HsoHBtt",
"ostodzyyE1wq0>lCkCP510-yGdozB'kskI}||y12)HHztInJ",
"tzboboHo1Me162('K^QqjpwyzsJcIBk&Q&FDDoe*Dnzz^n^C",
"JtzzzHGGsoyML0='7h( ~XsytDnJ^IF7QiVGGdD*sJccnkIC",
"nJtJBssosHozxxpERb5>LbdNJ^nCCk{QiiiddbGEcCk^^&CH",
"HJIkJtGHcoHsbxp6,cEpoB^C,&k&&'{&R]VzMzoDBk^sCC''",
"lwCj}}[,Ojj%N$N$}hJ|'FO,$,$AWVG=l(llx}P}%%A}h}jA",
"aa_0w=M,6--02--(__(*;-O|pp>wqq-=>m0>_>(-2qf_l/ @",
"!.*zJnnvaq;0(;_(;a_:HCi0=>q-:p2l:)):a;!acFp0:.!^",
"|ozzJIB[2;>:/);la BC&QYq*65;(_:-m<@<&nC{&KE6_:>I",
"sztcBk&Rpf:(l/ ~gszC7k[y|p(5-f-:>)++I&k&K,D|e(7k",
"GcICI&&B|5q=_l/ .^&Q7khD6M|Lpw6f=(>=n&&'7GzD1=&C",
"nIIkCJJIxwpwf(;:8F7FQRNoddeMHxL*pl=;sC'QQHddyLKK",
"^IC&KkQFoGEL*q0>'7BiRR,MHtHooGypex5f_'KRN[obD1K7",
"C&'KQ{iRcHGbLf5qFF{KRNNJottnHsHyyELfq'FYfpkHGK{R",
"Ck7Q{{]OjkoGxe*qFRKO]$hnzttHzssHoyx|*O7*Le*tziOV",
"I7QiOOOK,RkGeD1L&'Oh}A]nJc^zJbcJBsC%,%tMDyD,ciRV",
"gr!u+<+mal(f2,Aihs|:m!rg.!u*7j]u^h]764r8.!/l6JN,",
"8884@!+/al=-=0z,1q:2/4/+;+<. e[~41P 48g+4@</6cb,",
">8+Z.4g )x^I&tKSxEL1*5q.!.albQ%lp^2lm~|MMyGboHJ'",
"0yzbzzncnBIJ&'JoyDxEeD1p5*f20QR-;IL(l+|Hozdozcn^",
"5BctcIbnIz'&Kc{dDDGMyGE|Lep55{O->I1q_/MyoHHszkB^",
"1^Bn^^kICC'IQ{VHEdGGGGGyMxE6pRi*_k|1fqdxosztDnBk",
"|ICICCCC'KQQ{FiooJbxbbddbGDx*{Qe=7||5HoGHJzcn^IC",
"zC&&&7'{KQ{{iROzsHHDyHJdoobb*IO]5RMD0zzzJJcnCIJK",
"nK{7QQ7i{CRiOiNtdsIyztsszzJHodVN*%DodJJcIBB^KkJ'",
"Q{{kQ{FViF{F]OjctcBJnzcJJzCtzo]}yhDsDntJI^nB&CK'"};
