/* XPM */
static char * wall5_xpm[] = {
"48 64 73 1",
" 	c #414141",
".	c #464646",
"+	c #494949",
"@	c #131313",
"#	c #0F0F0F",
"$	c #191919",
"%	c #2B2B2B",
"&	c #313131",
"*	c #333333",
"=	c #393939",
"-	c #363636",
";	c #3C3C3C",
">	c #111111",
",	c #1D1D1D",
"'	c #434343",
")	c #161616",
"!	c #3E3E3E",
"~	c #373737",
"{	c #383838",
"]	c #3B3B3B",
"^	c #404040",
"/	c #0B0B0B",
"(	c #292929",
"_	c #272727",
":	c #2A2A2A",
"<	c #2E2E2E",
"[	c #303030",
"}	c #121212",
"|	c #101010",
"1	c #323232",
"2	c #353535",
"3	c #202020",
"4	c #232323",
"5	c #262626",
"6	c #252525",
"7	c #2C2C2C",
"8	c #444444",
"9	c #0C0C0C",
"0	c #171717",
"a	c #3F3F3F",
"b	c #3D3D3D",
"c	c #080808",
"d	c #3A3A3A",
"e	c #1A1A1A",
"f	c #1E1E1E",
"g	c #2D2D2D",
"h	c #474747",
"i	c #4A4A4A",
"j	c #212121",
"k	c #040404",
"l	c #1B1B1B",
"m	c #242424",
"n	c #181818",
"o	c #2F2F2F",
"p	c #424242",
"q	c #454545",
"r	c #090909",
"s	c #151515",
"t	c #282828",
"u	c #222222",
"v	c #141414",
"w	c #343434",
"x	c #1C1C1C",
"y	c #1F1F1F",
"z	c #484848",
"A	c #0E0E0E",
"B	c #4B4B4B",
"C	c #0D0D0D",
"D	c #0A0A0A",
"E	c #060606",
"F	c #070707",
"G	c #050505",
"H	c #4D4D4D",
" .  +@#$%&&*=-;@>>,=; ' +.@)>,!~{]{^~=*/>>(%%&_:",
"]]. ;!;/<*[&-$}|^]>~=!^'...*1*22]-=]-{{34(5_67<<",
"8..'..'!~9<0|a;bb]]]cd2{2=e1*=-1~{2d$fff4:g%g<%1",
"hi...=*%4j@!]!  ]a!]d*k[*5>1-]a'^!^lmffnl%(:%%o<",
"+'ph (_j4j3^  q]b;];]~{*r6l' ^a!!]{df,se$5_%((%%",
" '  bt(6mj=]!p (1']]bd=={@bbb~]={--*$le$lt5555m(",
"^!!8 15:4_~=]! 4ju4jjfjlee b==~**&&&gf$$0v4m55m_",
"=d!d=]7m4f**{=bj6uj3fllj$$a--w*1o&<<%$$)(;n9ju66",
"[=-{-254j><[1--ff6ffxyl$$0!<<&<<%%(t56$#= $##jjj",
"wwww[=2j4>:7*~el,f,ney$0n0d*&%%(t554tj9t[<56fjf3",
"2&7$}/$|v>65%g$ueee,0$nn0v2%%656u443r|1@/9||8a^0",
"*~];;.8 z&/A(_j$$ll$$n0@A>@:6%tl#|(w~2=]{)>>**]b",
"]!!];  a'! '8#A>@>|=p p]ddBAAh..|o&:1w2*]l,A~!!^",
"d]!.'qz'''h(5_#_g=^^;!.! w,,>'iz6[<&%&*1*j,|={=!",
"2]d]! ..+m%m43A465t:<o=*=$$$|^,l)(:(g<*[*($C[&-p",
"*1-= !qhi5:(yj33jm65too&*ln0}{llv5%5ut<%*<$>g&2-",
"<(12~b''8u4(jjyAxfjjt(%<&000$&l$A646_(o(5tn,5<o1",
"%&[&*{^]8jjj3yfl6,j(45t&<g00$w0nlmj4m44t(_l$t55o",
"65(<o1~=!5yyff,xlxlf3u5o5-sn>w3e3uyj44m4ot:f44_:",
"3m5(%[2-=,l,l,l$#llx,535(%nv@[s)jff3ff646:(e(j4%",
"y3j6((<&1y$lly$$$m)jyef45(nsv[v>4y3llxmf4m$)s3m:",
"fy3jm5:g*y$s$$>f;ll9#D)f65}Av/9v9A|/@9x5:(<ot4>A",
"d/>)j((<<0$vv%[*;;;4>1b=n/o<&----e|545t:g%<*<%&[",
"=]a; A>##A>||AD>>|A>>d^'l==!*{-{@n0gt<oo&<<o&o11",
"==;=*~)&<[o1**1**=2*w=va/1*-{=]bx0)9<:5_(<&1*2-=",
"q!!-y3fw-&wwww*{**~w**g>:1[&*]&=efs056t((%<[&21{",
".iiuyfv1{1*]2{-dw~22-1nA_<%7&&**2@}st4__5_%go*1*",
"8ph*fj)<&w*{12-{=];^zfv#j5(t_<g&*6}@A,4mj(tg1go[",
"b!p',f@*g<<-o-1*-=;!n$@93j(6(tt<%1s>#4j4_5g5(%<[",
"]]!'=00%:%(:gg<<12~-@e>,flf5u6<%o%*A@@x4jmm5t6%<",
"2~!b=}}g4j465((o<[&*@}vnxf5,yfj((%:*#>y6j34jm(5(",
"**={ $A>(554((:%<:o<}|>s4e0x,43j45:29>>jj35mumj%",
">/>>)@0|@A0(%%t%4n>D|#>9rE)$$x$AA/C>>>|0#|///EFG",
"<:%<o1*{-~={d]2*=/>.8Bz8p p;{2*~&[]!8i;b;;]]2[-*",
"&*%*&{2]~]{=]dd==]9pqB&:g:_6(xf,|>:=9;pb;8=;;*43",
"*o&[-1*{d]dd]]dddl}] .&<&(5:tf,,0#jC1-]b'utt56m3",
"o(<o&&&1{~=-  'flf}<{po<155tfjfx$s>,(w-=a(456m4f",
"m:((571go---=];xe$@*=-17%754f,f3$)l7<[%-;44m4fjj",
"m4jm56%%<&o&-{dlll/w&==_55mjf$l4$e>oo%&{;44jjxf3",
"jj6m6m4m&7<&&2~$n,)-A*w_jj3yxfl$s$n%%t<&tfjj,fl$",
"3jjjj4555t%7g-*$0A~]'Hj_3_f3,xs0s@)::(%&43yyfll$",
"f3j3f44m44mj((<:0(&{%m6#3,fll$@)vvn(((:<f$e,,n$u",
"uy3y4,45ym55(g*2>4<<4,ll>,e$$$)n@>}676t%,e,j$l$$",
"dofA>>A>>DA|@@@@>}4<lnv9@>@rF}5*]~]!g>/>##r>>ADr",
"==~wo*(>&22w*22-~~-<=->7<<{o&&2*{;w{~{-2*&-~db! ",
"p'<j3ffEd1-1*=~-==~]4lvw*=1-]<*~{=={-=pdf@*-]' l",
"7mjj3l,/2={]b]=d=!ll$)E&<&&=~~]2;! !n,l)$0<&{]{l",
"4jjyfe$@o*]~db!..jj$)l#5%<~[2*-]=;^^l$l$n9%o<~0l",
"5yxlx$nf7&1*~db^'lns)l}_&t7%<[&**~{*f$$$056%&*$l",
"fxle$ffx(o<o1-=].@0s)@@m55%75g[<<d*=jl$))t((%gnn",
",x$$)evsm5(%<&w{$0l}>@9(4j4mm5_o:([1~$n@@#t(%<n0",
"l$0)v@}@y45m%1[&ss@)>##3mjjf444_5(%1&$sE-*y5:n)@",
"$$0))@A#Aym5(:<&s@)>>|}ujjj4j444m_(%<>l&[<&m6v>}",
"lsv}###)>0x_:t<%n0>}>Asmjjy4u(44j5f|>|m7%%%>4v#A",
".' p^!^;=d-1*>A09j7a 8.z' '<0Avq3>vewz.+.8 !23@>",
"''' ! ^b=d*2*wj>[2]*b8b^-b;^]:#q8g/aq.h q ^!&ym|",
"=.^B'qha;(,x$30/g<[&&w-.p'd]6)/!o,=! h7((_56m43$",
"-_jmjjfyffx3$ny5%%g<<%&*&<*2-)@==x&d!p74mj5mjyf,",
"&fyjyx6flj$$)f@(%%:7%:<o[<o&&)>==x1-]!(_m444jlf,",
"<,ff,,lx$$$xv@>5<(:::::%7g:&o@v&{l[&-15(m4jjtffl",
"7xlxllll$n)))svtt4(g(((((:t(<))<*0oow44543jyf,xl",
"jl$$$0$)n)@@}@>6444t_435mm66<l#>&@7%-jjj33yflxy0",
"fn)0))0v)l>}#v#m54x_jj44jj34m6>#</%t533yxff,nlyn",
"))@e))s}}@@@A>Ayjyj3fjy43jljj4A/_A%__f3yx,f,$l0n"};
