/* XPM */
static char * gray_wall_xpm[] = {
"48 64 661 2",
"  	c #5C6069",
". 	c #62666F",
"+ 	c #5C636B",
"@ 	c #5D646C",
"# 	c #676E76",
"$ 	c #21252E",
"% 	c #1C2029",
"& 	c #2B323C",
"* 	c #444D54",
"= 	c #4B545B",
"- 	c #4E575E",
"; 	c #535A64",
"> 	c #515A63",
", 	c #59626B",
"' 	c #1D2228",
") 	c #2C3137",
"! 	c #535A62",
"~ 	c #575E66",
"{ 	c #60676F",
"] 	c #5E656F",
"^ 	c #646B73",
"/ 	c #262D35",
"( 	c #20272F",
"_ 	c #2F363E",
": 	c #596068",
"< 	c #50575F",
"[ 	c #515860",
"} 	c #565D65",
"| 	c #525963",
"1 	c #5B626A",
"2 	c #4C535B",
"3 	c #192028",
"4 	c #1F222B",
"5 	c #1E212A",
"6 	c #414A51",
"7 	c #434C55",
"8 	c #444D56",
"9 	c #4C545F",
"0 	c #404A53",
"a 	c #434D56",
"b 	c #585C68",
"c 	c #656F79",
"d 	c #606A74",
"e 	c #59636D",
"f 	c #5C646F",
"g 	c #5A626D",
"h 	c #1B222C",
"i 	c #454B57",
"j 	c #4D535F",
"k 	c #484E5A",
"l 	c #494F5B",
"m 	c #515765",
"n 	c #293036",
"o 	c #21282E",
"p 	c #1D212A",
"q 	c #5C606B",
"r 	c #575B66",
"s 	c #515763",
"t 	c #535965",
"u 	c #5B656F",
"v 	c #5E6872",
"w 	c #626C76",
"x 	c #66707A",
"y 	c #676F7A",
"z 	c #4D5761",
"A 	c #4C5660",
"B 	c #4E5862",
"C 	c #505A64",
"D 	c #57616B",
"E 	c #515B65",
"F 	c #555F69",
"G 	c #525C66",
"H 	c #545E68",
"I 	c #36404A",
"J 	c #353841",
"K 	c #3D4049",
"L 	c #3D4A53",
"M 	c #404D55",
"N 	c #3D4A52",
"O 	c #45525B",
"P 	c #49535F",
"Q 	c #48525E",
"R 	c #626973",
"S 	c #646B75",
"T 	c #656C76",
"U 	c #606771",
"V 	c #646A76",
"W 	c #606672",
"X 	c #5A616B",
"Y 	c #515862",
"Z 	c #1C232D",
"` 	c #444851",
" .	c #262A33",
"..	c #20242F",
"+.	c #5D666F",
"@.	c #59606A",
"#.	c #575E68",
"$.	c #565D67",
"%.	c #171E28",
"&.	c #555964",
"*.	c #4E525D",
"=.	c #525661",
"-.	c #4F5561",
";.	c #545A66",
">.	c #2D343E",
",.	c #535D67",
"'.	c #575F6A",
").	c #2F3742",
"!.	c #313842",
"~.	c #383F49",
"{.	c #414852",
"].	c #444A56",
"^.	c #454D58",
"/.	c #474F5A",
"(.	c #48525C",
"_.	c #434D57",
":.	c #656774",
"<.	c #686A77",
"[.	c #636572",
"}.	c #646673",
"|.	c #656974",
"1.	c #535762",
"2.	c #4D515C",
"3.	c #424651",
"4.	c #373B46",
"5.	c #353944",
"6.	c #22262F",
"7.	c #5C606C",
"8.	c #565C68",
"9.	c #5B616D",
"0.	c #5E6470",
"a.	c #5F6973",
"b.	c #58626C",
"c.	c #5D6771",
"d.	c #555B67",
"e.	c #4D545E",
"f.	c #121923",
"g.	c #484C57",
"h.	c #4C505B",
"i.	c #3B3F4A",
"j.	c #1E222B",
"k.	c #4B515D",
"l.	c #505662",
"m.	c #565C6A",
"n.	c #5C6270",
"o.	c #616775",
"p.	c #5D6371",
"q.	c #5B616F",
"r.	c #5D616D",
"s.	c #2E3440",
"t.	c #393F4B",
"u.	c #2A313B",
"v.	c #2F3640",
"w.	c #424953",
"x.	c #3F4650",
"y.	c #474E58",
"z.	c #454C56",
"A.	c #666875",
"B.	c #5F616E",
"C.	c #5E606D",
"D.	c #5E626D",
"E.	c #40444F",
"F.	c #3D414C",
"G.	c #363A45",
"H.	c #31353E",
"I.	c #5D636F",
"J.	c #636975",
"K.	c #5A646E",
"L.	c #585E6A",
"M.	c #181C27",
"N.	c #3A3E49",
"O.	c #2C3039",
"P.	c #626878",
"Q.	c #606676",
"R.	c #5A606E",
"S.	c #535763",
"T.	c #313743",
"U.	c #303741",
"V.	c #272E38",
"W.	c #2C333D",
"X.	c #3C434D",
"Y.	c #3D444E",
"Z.	c #404751",
"`.	c #5D5F6C",
" +	c #5C5E6B",
".+	c #595D68",
"++	c #3E424D",
"@+	c #393D48",
"#+	c #51555E",
"$+	c #575B67",
"%+	c #606470",
"&+	c #5E626E",
"*+	c #3F4551",
"=+	c #616773",
"-+	c #575D69",
";+	c #595F6B",
">+	c #242B35",
",+	c #595F6D",
"'+	c #525662",
")+	c #525864",
"!+	c #4C525E",
"~+	c #2B313D",
"{+	c #2E323D",
"]+	c #3B424C",
"^+	c #39404A",
"/+	c #5A5D66",
"(+	c #585B64",
"_+	c #575A63",
":+	c #60636C",
"<+	c #4B4F5A",
"[+	c #3C404B",
"}+	c #424652",
"|+	c #383C47",
"1+	c #515560",
"2+	c #5B5F6B",
"3+	c #5F636F",
"4+	c #363C48",
"5+	c #373D49",
"6+	c #323943",
"7+	c #353C46",
"8+	c #2E353F",
"9+	c #4A515B",
"0+	c #444B55",
"a+	c #292D38",
"b+	c #252934",
"c+	c #52555E",
"d+	c #53565F",
"e+	c #565A65",
"f+	c #434752",
"g+	c #3A3E4A",
"h+	c #323641",
"i+	c #555965",
"j+	c #5A5E6A",
"k+	c #3A404C",
"l+	c #343843",
"m+	c #313540",
"n+	c #363D47",
"o+	c #5B5F6A",
"p+	c #4E5460",
"q+	c #474D59",
"r+	c #282F39",
"s+	c #585C67",
"t+	c #2A2E39",
"u+	c #373E48",
"v+	c #3A414B",
"w+	c #464952",
"x+	c #51545D",
"y+	c #4D5059",
"z+	c #50535C",
"A+	c #4E515A",
"B+	c #363A46",
"C+	c #454954",
"D+	c #4B525C",
"E+	c #515561",
"F+	c #2F333E",
"G+	c #333A44",
"H+	c #29303A",
"I+	c #585C65",
"J+	c #464C58",
"K+	c #464D57",
"L+	c #434A54",
"M+	c #3E454F",
"N+	c #2C303B",
"O+	c #1F232E",
"P+	c #202731",
"Q+	c #4B4E57",
"R+	c #4C4F58",
"S+	c #363942",
"T+	c #40474F",
"U+	c #424951",
"V+	c #4C535D",
"W+	c #535760",
"X+	c #3A4149",
"Y+	c #363D45",
"Z+	c #3D444C",
"`+	c #1E2730",
" @	c #3F4851",
".@	c #4A525F",
"+@	c #474F5C",
"@@	c #3E474E",
"#@	c #383B44",
"$@	c #2F323B",
"%@	c #33383C",
"&@	c #343D44",
"*@	c #363F46",
"=@	c #474A53",
"-@	c #41444D",
";@	c #292C35",
">@	c #20232C",
",@	c #181B24",
"'@	c #282B34",
")@	c #23262F",
"!@	c #394048",
"~@	c #262D37",
"{@	c #4C5059",
"]@	c #333A42",
"^@	c #171E26",
"/@	c #1F262E",
"(@	c #4A5159",
"_@	c #232A32",
":@	c #181C25",
"<@	c #191D26",
"[@	c #1D2029",
"}@	c #595D66",
"|@	c #595E64",
"1@	c #252A30",
"2@	c #626874",
"3@	c #666D75",
"4@	c #495058",
"5@	c #1D242C",
"6@	c #2D313C",
"7@	c #1A1F25",
"8@	c #2B2E37",
"9@	c #1C1F28",
"0@	c #3D414A",
"a@	c #515964",
"b@	c #555D68",
"c@	c #2B333E",
"d@	c #1F232C",
"e@	c #4D515D",
"f@	c #5A606C",
"g@	c #5C6670",
"h@	c #616B75",
"i@	c #1E252B",
"j@	c #1C2329",
"k@	c #20252B",
"l@	c #1C2127",
"m@	c #5F6670",
"n@	c #5A6970",
"o@	c #5A6875",
"p@	c #5D6A7A",
"q@	c #6A717B",
"r@	c #1A1D24",
"s@	c #666D77",
"t@	c #63666F",
"u@	c #454851",
"v@	c #4A4E5A",
"w@	c #414753",
"x@	c #4F535F",
"y@	c #303440",
"z@	c #2E323B",
"A@	c #191E24",
"B@	c #5C626E",
"C@	c #565A66",
"D@	c #656975",
"E@	c #616571",
"F@	c #676D79",
"G@	c #666C78",
"H@	c #3B3F48",
"I@	c #1B2026",
"J@	c #47515D",
"K@	c #57616D",
"L@	c #5E6770",
"M@	c #5F6772",
"N@	c #666E79",
"O@	c #5D6975",
"P@	c #606873",
"Q@	c #505863",
"R@	c #2E313A",
"S@	c #696F7B",
"T@	c #484F59",
"U@	c #49505A",
"V@	c #353B47",
"W@	c #30343F",
"X@	c #1D2226",
"Y@	c #545864",
"Z@	c #666A76",
"`@	c #696D79",
" #	c #434753",
".#	c #393D49",
"+#	c #1D212C",
"@#	c #3B424A",
"##	c #2B2F3A",
"$#	c #313541",
"%#	c #272B36",
"&#	c #1A1D26",
"*#	c #50545F",
"=#	c #5F636E",
"-#	c #646874",
";#	c #676B77",
">#	c #6A6E7A",
",#	c #3C404C",
"'#	c #404450",
")#	c #343844",
"!#	c #343B43",
"~#	c #383F47",
"{#	c #4A505C",
"]#	c #2F3541",
"^#	c #20242D",
"/#	c #42454E",
"(#	c #4F5660",
"_#	c #626672",
":#	c #636773",
"<#	c #383C48",
"[#	c #333742",
"}#	c #1B1F28",
"|#	c #2E353D",
"1#	c #313840",
"2#	c #292F3B",
"3#	c #2A2E3A",
"4#	c #282C35",
"5#	c #4A4E59",
"6#	c #1C232B",
"7#	c #373E46",
"8#	c #3C434B",
"9#	c #303642",
"0#	c #3A4147",
"a#	c #43464F",
"b#	c #474B56",
"c#	c #3E454D",
"d#	c #4B4F58",
"e#	c #2B2F3B",
"f#	c #373A43",
"g#	c #353C44",
"h#	c #3D444A",
"i#	c #4C505C",
"j#	c #2D343C",
"k#	c #2C333B",
"l#	c #30373F",
"m#	c #3C424E",
"n#	c #222631",
"o#	c #353945",
"p#	c #2E323E",
"q#	c #31343D",
"r#	c #343740",
"s#	c #323941",
"t#	c #323844",
"u#	c #373E44",
"v#	c #3F464E",
"w#	c #2F333F",
"x#	c #1E252D",
"y#	c #343B45",
"z#	c #252C36",
"A#	c #464A53",
"B#	c #282C38",
"C#	c #252932",
"D#	c #2A2D36",
"E#	c #3C3F48",
"F#	c #333945",
"G#	c #272C32",
"H#	c #363B41",
"I#	c #2B343B",
"J#	c #354046",
"K#	c #333E44",
"L#	c #2D383E",
"M#	c #313C42",
"N#	c #262A35",
"O#	c #384349",
"P#	c #343F45",
"Q#	c #313A41",
"R#	c #303940",
"S#	c #272A2F",
"T#	c #22252A",
"U#	c #212429",
"V#	c #31363A",
"W#	c #3E414A",
"X#	c #2D313D",
"Y#	c #1B222A",
"Z#	c #181F27",
"`#	c #272E36",
" $	c #232A34",
".$	c #1A1E29",
"+$	c #1C202B",
"@$	c #454C54",
"#$	c #464D55",
"$$	c #363A43",
"%$	c #1B1E27",
"&$	c #171B24",
"*$	c #1E2329",
"=$	c #23282E",
"-$	c #33363F",
";$	c #424B52",
">$	c #464A55",
",$	c #292D36",
"'$	c #232730",
")$	c #505761",
"!$	c #5B5E67",
"~$	c #1F2428",
"{$	c #1E222D",
"]$	c #191D28",
"^$	c #1F212D",
"/$	c #545863",
"($	c #48515A",
"_$	c #4F525B",
":$	c #252831",
"<$	c #4D565F",
"[$	c #555E67",
"}$	c #4E555F",
"|$	c #4F535E",
"1$	c #282C37",
"2$	c #191C25",
"3$	c #646C79",
"4$	c #5B6370",
"5$	c #535B66",
"6$	c #4F5963",
"7$	c #46505A",
"8$	c #494D58",
"9$	c #2D333F",
"0$	c #272D39",
"a$	c #656877",
"b$	c #696C7B",
"c$	c #555C66",
"d$	c #2C3640",
"e$	c #242A36",
"f$	c #232935",
"g$	c #656776",
"h$	c #4B4D5C",
"i$	c #333743",
"j$	c #24292F",
"k$	c #595D69",
"l$	c #686C78",
"m$	c #262C38",
"n$	c #252935",
"o$	c #494C55",
"p$	c #444750",
"q$	c #2A303C",
"r$	c #2C323E",
"s$	c #252B37",
"t$	c #434955",
"u$	c #222933",
"v$	c #3F424B",
"w$	c #3F434E",
"x$	c #414550",
"y$	c #444853",
"z$	c #222834",
"A$	c #424854",
"B$	c #1F2630",
"C$	c #22252E",
"D$	c #505460",
"E$	c #262E39",
"F$	c #20232A",
"G$	c #4E525E",
"H$	c #262A36",
"I$	c #232732",
"J$	c #2D363D",
"K$	c #202632",
"L$	c #3A3D46",
"M$	c #40434C",
"N$	c #484C58",
"O$	c #474B57",
"P$	c #242834",
"Q$	c #293239",
"R$	c #29343A",
"S$	c #39434D",
"T$	c #3E4852",
"U$	c #32353E",
"V$	c #212530",
"W$	c #1B1F2A",
"X$	c #242831",
"Y$	c #242833",
"Z$	c #262932",
"`$	c #3B3E47",
" %	c #293038",
".%	c #161A23",
"+%	c #131A22",
"@%	c #2B323A",
"#%	c #1A2129",
"$%	c #1A1E27",
"%%	c #141B25",
"&%	c #161D27",
"*%	c #131A24",
"=%	c #525961",
"-%	c #626671",
";%	c #6A6E79",
">%	c #676B76",
",%	c #5D616C",
"'%	c #454A50",
")%	c #5A5E69",
"!%	c #696D78",
"~%	c #585F69",
"{%	c #566069",
"]%	c #636772",
"^%	c #545B65",
"/%	c #555764",
"(%	c #484A57",
"_%	c #444653",
":%	c #3F434F",
"<%	c #181D23",
"[%	c #474C52",
"}%	c #323642",
"|%	c #4A4D56",
"1%	c #4D5258",
"2%	c #494E54",
"3%	c #4A4F55",
"4%	c #373B47",
"5%	c #2C303C",
"6%	c #272B34",
"7%	c #484B54",
"8%	c #393C45",
"9%	c #6E727E",
"0%	c #3E424E",
"a%	c #444854",
"b%	c #3B3F4B",
"c%	c #272A33",
"d%	c #30333C",
"e%	c #333C43",
"f%	c #3A434A",
"g%	c #383D41",
"h%	c #212830",
"i%	c #21242D",
"j%	c #151924",
"k%	c #5D646E",
"l%	c #616570",
"m%	c #141823",
"n%	c #131722",
"o%	c #646675",
"p%	c #656B77",
"q%	c #292D39",
"r%	c #5B5D6C",
"s%	c #1F242A",
"t%	c #414850",
"u%	c #3A3F45",
"v%	c #282E3A",
"w%	c #1E2128",
"x%	c #262930",
"y%	c #2E353B",
"z%	c #3C4349",
"A%	c #1A1F23",
"B%	c #23282C",
"C%	c #35383D",
"D%	c #343B41",
"E%	c #333A40",
"F%	c #30383B",
"G%	c #363E41",
"H%	c #343C3F",
"I%	c #363B3F",
"J%	c #393E42",
"K%	c #1E2327",
"L%	c #373C40",
"M%	c #41464A",
"N%	c #404549",
"O%	c #3F4448",
"P%	c #212A33",
"Q%	c #202932",
"R%	c #616872",
"S%	c #5C636D",
"T%	c #5B626C",
"U%	c #595C65",
"V%	c #60646D",
"W%	c #636770",
"X%	c #5F666E",
"Y%	c #282F37",
"Z%	c #61656E",
"`%	c #2A2E37",
" &	c #646871",
".&	c #666A73",
"+&	c #5B5F68",
"@&	c #1C1F26",
"#&	c #636A74",
"$&	c #666A75",
"%&	c #6C707C",
"&&	c #50555B",
"*&	c #3A3E47",
"=&	c #464B51",
"-&	c #545760",
";&	c #212733",
">&	c #434750",
",&	c #212832",
"'&	c #3B4044",
")&	c #222632",
"!&	c #393E44",
"  . + @ # $ % & * = = - ; > , $ ' ' ) ! ~ @ { ] # ^ $ / ( _ : < [ } | 1 < ! 2 3 4 5 6 7 8 9 0 a ",
"b b c d e f g h i j k l m n o p q r ' s t u v w x c y z A B C C D E F D G H H I J K L M N O P Q ",
"R S T U V V W X Y Z `  ...+., @.@.#.#.$.%.&.*.=.-.;.>.A B F G A ,.H C '.).!.!.!.~.{.].^./.(._.A ",
":.<.[.}.|.1.2.3.4.5.6.7.8.9.0.a.b.c.u 8.d.e.f.g.h.i.j.k.l.m.n.o.p.q.r.s.t.!.!.u.v.w.x.{.w.w.y.z.",
"A.B.C.:.D.E.F.5.4.G.H.r.I.I.J.b.K.e D L.8.Y | 2.M.N.O.P.Q.p.n.q.R.m.S.d.T.U.V.>.W.X.Y.w.x.Z.w.w.",
"`.B.`. +.+++E.N.@+5.#+$+7.%+&+*+k.=+8.-+;+d.t t | >+.+,+,+'+b t )+l.l.!+~+v.>.W.{+++]+X.X.X.^+x.",
"/+(+_+:+D.<+[+}+|+F.1+1.r 2+3+|+4+5+|+G.5.6+7+8+>.>.D.;+;.t s !+j l 9+9+0+!.W.& a+b+|+^+X.]+^+Y.",
"c+d+_+d+1.e+f+g+4.h+h.2.=.i+j+G.k+5+5.l+m+8+v.n+W.& o+l.l.p+!+k.q+l z.z.w.W.& r+E.s+t+Z 7+u+v+v+",
"w+x+y+z+A+*.i.4.B+j.C+g.D+E+E+6+!.v+!.m+F+G+v.& & H+I+J+J+l J+K+L+w.x.M+X.v+N+O+F d W.P+P+7+7+n+",
"Q+Q+Q+Q+w+c+R+B+S+4 T+U+V+Y >.s.U.!.U.u.>.G+W.H+u.H+W+V+9+L+w.Z.M+X.X+Y+Z+n+`+ @.@+@@@#@$@%@&@*@",
"R+=@-@;@>@,@'@p )@5 !@X+w.0+W.5+>.>.>.U.H+& u.u.H+~@{@w.w.v+X.v+u+~.Y+]@^@/@(@_@:@<@p [@:+}@|@1@",
"V+Y -+L.L.V 2@@ 3@4@3 5@x.Y.7+N+N+6@6@& W.u.H+6.7@' $ {.v+w.M+8@9@[@0@p+s a@F D b@c@d@' e@e.-+;+",
"m.q.f@-+L.I.0.c.w g@a.h@R i@j@' k@' l@; m@] m@n@o@p@q@r@r@s@S t@[@u@v@w@k.x@-.!+b y@z@A@'+X f@B@",
"C@b 2+D@E@J.F@W W =+G@*+i.H@I@Y.J@K@L@M@g f N@O@P@Q@U.R@5 =+S@F@v+T@z.9+w.U@j k.j V@W@X@1.=.Y@7.",
"-.8.C@b 7.3+D@Z@`@g+ #g+.#l++#Y+!@@#M+{.z.y.; !+t ~+& ##p r.$#6@%#E.{.Z.0+z.e.T@V+Z.& &#w+9+*#=#",
"j k.E+Y@3+2+-#;#>#,#}+'#)#G.l+]@!#~#v+X.M+y.y.{#j ]#u.a+^#S.y@6@b+[+L+X.u+M+z.L+e.K+W.5 /#U@*.*#",
"z.Z.D+(#'+j+E@_#:#<#4.E.5.5.[#}#|#1#7+7+M+x.w.K+{#2#H+3#4#5#{+##6#!@7#!@8#x.y.Z.]+M+u.9#0#a#b#<+",
"L+9+T@U@e.S.r.b :#B+G.5.l+[#h+6@!@_ !#c#7#]+M+U@J+].H+a+N+d#3#e#8@f#g#7#~#~.~.M+Z.Y.v.~+h#@#X.y.",
"v+X.x.z.y.i#'+Y@2+,#[#[#m+m+W@F+j#|#k#l#]@u+]+y.m#l.V.t+n#d#o#p#q#r#s#!#Y+~.^+~.y.M+{.t#u#Y+Y.{.",
"]@~#@#v#L+T@(#*#Y@$#{+W@w#W@{+N+x#j#j#|#_ ]+y#]+Z.L+u.~@z#A#B#C#!#l#l#]@l#1#!@Y+v+{.x.D#E#g#~.L+",
"s#]@g#!@c#x.z.9+k.F###{+w#[#N+##G#H#I#J#K#L#M#7#X.x.u.N#b+g.b+n#O#K#P#Q#R#|#~#1#~.^+S#T#U#V#f#W#",
"1#s#]@!#~#]+{.0+!+F#N+N#X#N+n#h+s+{+O.Y#x#Z#`#1#v+X. $+#b+.$+$b+Y#5@/@:@$ Y#|#X+{.Z.@$#$Z+$$4 %$",
"W+&$*$=$-$6 ;$>$>$a+,$'$'$3.g.V+s+s+s+S+5 <+.+;.t+.$b#K+U@)$)$)$)$>.l@X.~.X.M+{.0+L+z.V+K+8 U@T@",
"Y@$+o+s+!$}#d@O+I@7@~$X@X@{$]$^$' l@A@5 5 &.q =+6@/$/$X V+| )$| z#u.1@0+M+K+y.y.9+K+K+y.U@($D+D+",
";.;.L.t e._$:$9+K+T@y.D+V+e.D+<$<$[$(#e.}$; ~@}@.$<+2.|$=./$e+j+F+a+1$2$a#{.X.Y.x.K+U@D+e.-.l.;.",
"3$4$f 5$)#l+m+}$*#5#}$}$}$}$V+| B B ,.6$B B 7$' {.D+g.8$h.$.9+Y@9$T.0$a+i.v+M+Z.Z.w.z.T@U@*.k.)+",
"a$b$>#<#)#m+b+D+=.<+V+#.(#| )$c$6$,.C C G A d$A@Y.K+3.f+8$U@e.e@-.e$f$N#++~.Y.Y.X.Y.L+0+y.h.k.!+",
":#%+g$h$i$B+j$>$U@}$e.| D+*.*#S.i+$+k$r.l$T.m$I@g#X+c#M+Y.z.0+9+!+k+f$n$7@_ 7#~#g#c#M+0+D+0+q+k ",
"j+7.%+_#W@6+z#o$/#p$C+|$b#|$<+e.*#1.k$9.q$r$s$Y#]@g#v#v+x.M+M+z.t$k.0$u$P+S+g#7#8#@#0+X.Z.w.K+T@",
"$+b 2+_#1.H+H+v$W#v$w$x$y$y$C+K+<+*.'+l.e$9$z$_ 1#j#1#]+u+v+z.L+q+A$!+B$>+C$|#7#g#~#^+X.M+v+w.z.",
"D$'+7.j+i+E$F$/#7#g#7#!@@#c#v#y.z.T@9+G$H$I$b+J$|#l#X+_ s#6+n+Z.*+t$w@j K$5 s#!@g#]@Y+7+^+x.]+Z.",
"h.2.i+S.&+N++#4 K L$L$S+E#E#W#M$J+w@N$O$P$[@5 Q$O#L#R$|#_ O#P#J#S$T$x$R+2$5 5 -$U$q#X+^+u+^+n+L+",
"V$W$d@d@X$Y$a+[@C$%$Z$K M$M$`$v$Y+ %d@.%p 9@5 <@^@+%/ @%@%|#@%6#6##%$%5 4 4 [@Z$9@[@#%h h %%&%*%",
"z.{.L+z.y.D+e.| )$Y ; | c$$.(#V+=%3 4 |.-%;%>%-%=#,%=#s+=.*.h.1+8$'%e+)%-%!%s+.+~%~%#.$.(#T@)$e.",
"U@V+L+e.9+| (##.Y $.| ; $.c$c${%F D 2$=#]%;%8$x$y$x$F.N.w$F+m+W@..*$x$1.+$s+=#.+~%R ^%~%~%V+~.y#",
"e.y.U@T@)$D+V+| c$#.c$c$#.#.c$d.d.s.>@/% +[.(%_%8$E.i.}+:%m+W@W@a+O+U$<%[%|$e+.+E@<#++++[+N.@+l+",
"#$v#a#u@U@5#8$<+=.1+/$*#3+&+E@m+y@}%^#p$z+=#b#>$<+[+i.++m+5.h+F+N+N#j.R@K Q+|$1.o+w$|+i.N.@+|+h+",
"~#T+E#K X.f+<+y$b#|$|$*#Y@b k$F+p#X#$ |%x+*#<+f+3.f+i.|+h+W@m+l+##%#O.-@p$w+3.|$s+|+4.@+|+m+5.5.",
"~#Y+!#~#X+#@v$v$a#=@y.9+|$S.C@6@{+6@&$Q+=@x+c+F.[+i.@+G.m+##{+4.r$9$j.u@u@v$=@z+s+|+|+G.5.F+h+l+",
"!#g#!@~#!@~#7#~#=@-@p$=@5#*.1+##t+W@1$1%7@2%3%F.B+4%l+[#F+m+{+N+B#5%6%M$M$`$p$7%++h+G.G.W@h+v.W.",
"]@!#g#g#g#7#@#@#8%`$v$-@y$|$2.##a+{$1+b.h@9%4%F.o#0%h+l+W@F+N#a+B#n$X$W#W#K M$7%4.l+[#[#h+{+8+W.",
"1#]@!#]@l#Y+Y+~#Y+7#~#g#v#x.K+x$Z$E#8$S.a%g+b%O+l+W@h+6@6@r$s$1$b+b+c%K K E#W#a#6+W.>.W@W@u.W.u+",
"u+G+q#d%S+e%f%L$s#~#L$8%E#/#o$R+5 J a#O$.#$#y@6@5 R@p#N+N+##%#u.Y$V$I$#@-@g%`$M$$#p#W@4%X#6@####",
"c$y.$@%$4 j.}#5 h%Z#%$[@i%C$i%C$4 >@S+` O.6%'$+$C$5 $ M.j%I$[+V+e+1+e+(+/#j.,@4 % % M.j.d@+#]$M.",
"^%^%Y }$y.2.w$5 U@(#(#}$e.(#(#)$Y Y )$z.; *#n#f+K+K+| y.9+9+(#V+| ~%}$)+s | )$(#e.9+A+Y c$@.X k%",
"=#l%>$G.l+}%}%m%&.<+E A B t s l.t ;.s r |+6@b+}$2.1.<+*#r J+j ,.H F F H G t =#&.i$H$o$|$r l%3+y@",
"f+@+G.G.l+w#$#.$*./$)+8.;+-+t d.;.f@]#6@N+1$n%9+>$5#8$/$1+s 8.-.L.9.I.9.q$9#6@%#5%3#a#5#=.r S.w#",
"4.G.5.[#m+>.& Y$b#h.r 1+C@j+2+o%p%4+V@X#q%{+I@X.w.K+1+T@(#h.*#r 1.s+r.r.w#N+{+N+t++$M$u@p$1+a+{+",
"[+[#F+6@F+& u.m+f+8$<+2.'+C@j+r%W s.q$B#q%{+s%Y.U@M+f+L+K+g.5#h.2.1+S.e@}%N+N+##a+[+#@M$=@2.N+6@",
"h+F+8+>.W.t#t#F+x.y.K+y.D+E+Y@$+V e$a+N#1$Y$k@~#X+X+t%-@L$/#w+>$K+c$e@Y@4%6@##1$1$u%K K v$y$t+t+",
"W@F+W.& r+>.~@N#~#@#Z.L+z.{#p+)+##a+]#f$z$Y$+$c#7#!#7#~#~#@#8##${.x.T@D+Y ##t+Y$i%9@`$E#M$C+t+a+",
"6@N+H+r+~@z# $Y$s#7#]+^+L+k.k {#N#N#s$v%z$O+O+]@~#!#!#1#7#Y+7#8#X.Z.L+D+9+##N#n%A+o$d%L$W#t+%#Y$",
"~+r$a+1$%#z#B$P+%$d%~#@#x.{.z.{#N#Y$r+n#V$..s%r#g#!#!#7#g#Y+Y+7#~#8#x.w.z.n#8@7%w+p$7%f##@b+n#I$",
"8+V.~@ $P+P+P+r+w%x%y%z%{.++C+a%u.H+n#>@4 A%B%C%D%E%F%G%H%E#J I%%@J%$@X@K%X@L%M%N%O%N%5 J b+P%Q%",
"T R%] m@S%T%S%~%^%c$)$D+e.' A@ .Z n+f+U%!$V%W%3@U ] X%@$Y%%$)@Z%H.d@)@`%d# &W%.&. V%+&(+R+l+k@' ",
"w w w d u 0.B@;+;.d.V+(#!+p+V@5 A#{@r e.@.R @.B@E K.e v b.{.@&#&2@].,@o+]%|.$&,%]%D.q )%5#[#g+p ",
"1.|.r.%&l%]%$&o+s+E.W@F+5%o#3#:@/#a#w+=@7%Q+y+t@=#l%&.e+N.1$W$(+b#W@&&(+!$:.f+w$w$F.[+N.@+|+l+##",
"|$F.B+g+G.G.h+[#h+m+F+l+5%e#)#*&v$M$/#a#p$M$=@o$8$>$h.*.|$1$Y$c+/$F+=&d+(+C.f+|+@+G.i.@+G.[#h+W@",
"8$m+[#5.[#F+N.h+w#B+##N+r+T.s$K M$M$W#-@v$W#a#u@w+p$b#8$8$%#n#c+1.F+[%y+-&)%w$F.@+|+|+4.G.{+m+W@",
"C+W@m+h+W@W@{+F+X#X###F+~@s$;&L$a#K W#W#W#W#W#v$-@/#x$5#b#Y$b+7%=.{+'%=@A+<+i.E.@+4.G.5.++h+m+{+",
"f+F+6@F+6@6@6@6@##t+1$1$%#N#b+`$`$S+E#/#E#E#K K E#W#Z+x.z.%#1$>&2.a+u@u@Q+|+.#,#|+l+G.[#h+W@F+6@",
"G.6@N+N+N+a+##%#t+1$z#z# $Y$n##@Y+7#7#Z+8#7#]@X+~#~#!@!@@$8+P+V$8$Y$-@N%|$G.G.G.l+l+[#h+6@F+)#3#",
"h+t+%#a+1$1$a+b+%#6@u$ $P+b+O+f#X+Y+|#8#g#!#Y+Y+g#g#]@7#~#v+,&O+>$W$M$'&i.l+l+[#F+m+m+W@t+{+)#e#",
"1$%#z#>.1$%#N#I$ $>+s$e$B$)&7@s#!#s#-$]@1#g#s#S+]@g#k#!#g#~.B$h F.{$M$!&0%h+o#)#F+W@h+$#5%6@3#e#"};
