/* XPM */
static char * cursor_xpm[] = {
"26 26 2 1",
" 	c #000000",
".	c #F0EDA1",
"            ..            ",
"            ..            ",
"            ..            ",
"            ..            ",
"         ........         ",
"       ...  ..  ...       ",
"      ..    ..    ..      ",
"     ..     ..     ..     ",
"     .              .     ",
"    ..              ..    ",
"    .                .    ",
"    .       ..       .    ",
"........   ....   ........",
"........   ....   ........",
"    .       ..       .    ",
"    .                .    ",
"    ..              ..    ",
"     .              .     ",
"     ..     ..     ..     ",
"      ..    ..    ..      ",
"       ...  ..  ...       ",
"         ........         ",
"            ..            ",
"            ..            ",
"            ..            ",
"            ..            "};
