/* XPM */
static char * door4_xpm[] = {
"48 64 15 1",
" 	c #21160E",
".	c #1B140D",
"+	c #1D140E",
"@	c #472B1F",
"#	c #2E1F16",
"$	c #6F4034",
"%	c #19130D",
"&	c #3D2A21",
"*	c #2D1D16",
"=	c #573427",
"-	c #1F150E",
";	c #28160C",
">	c #352418",
",	c #332418",
"'	c #5F382B",
"  ... .. ..  .   .. ..  .. .. ..  ... .. ..  +.@",
"+ #.. .  ...+..+ .  ...+.. .  ...+#.. .  ...+ .@",
".+$$$$$$$$$$$$$$$$$$$$$$$$$$$$$$$$$$$$$$$$$$$++@",
"..$%&%%.&%..*.%.*%.%&%%.&%..*.%.*%.%&%%.&%..*++@",
"..$%&%%%&%..&...*%.%&%%%&%..&...*%.%&%%%&%..&. @",
"..$%&&&&*%..&..%&..%&&&&*%..&..%&..%&&&&*%..&. =",
" .$%&%%%*%..&%.%&..%&%%%*%..&%.%&..%&%%%*%..&.#=",
" .$%&%.%*%..&%.%&..%&%.%*%..&%.%&..%&%.%*%..&.#=",
".+$%&..%&%%%&%.%*..%&..%&%%%&%.%*..%&..%&%%%&++@",
"+-$%*..%&&&&*..%*..%*..%&&&&*..%*..%*..%&&&&*. @",
"-.$.&..%&%%%*..%&.%.&..%&%%%*..%&.%.&..%&%%%*. =",
"..$.&.%.&%.%*..%&%%.&.%.&%.%*..%&%%.&.%.&%.%*.#=",
"..$%&%..&..%*..%&%%$$$$$$$$$$$.%&%%%&%..&..%*.#=",
".+$&*%..&.%.&%..&&&$;@$;;$;@$;..&&&&*%..&.%.&+-@",
"..$%*...&%..&%%.&%.$;@$;;$;@$;%.&%.%*...&%..&+.@",
"..$%*...&...&%..&..$;@$@;$@@$@..&..%*...&...&..@",
"..$%*...*%.%&..%&..$@@$@@$@@$@.%&..%*...*%.%&..@",
" .$%*.%.*%.%&&&&&..$@@$@@$@@$@&&&..%*.%.*%.%&. @",
" .$%*.%.&%..*%..&%.$@@$@;$@@$@..&%.%*.%.&%..*. @",
".+$%&%%.&%..*.%.*%.$@;$@;$@@$@%.*%.%&%%.&%..*.#=",
"+-$%&%%%&%..&...*%.$@;$@@$@;$@..*%.%&%%%&%..&+-@",
"-.$%&&&&*%..&..%&..$@;$@@$@;$;.%&..%&&&&*%..&+.@",
"..$%&%%%*%..&%.%&..$@;$@@$@;$;.%&..%&%%%*%..&..@",
"..$%&%.%*%..&%.%&..%&%.%*%..&%.%&..%&%.%*%..&..@",
".+$%&..%&%%%&%.%*..%&..%&%%%&%.%*..%&..%&%%%&. @",
"..$%*..%&&&&*..%*..%*..%&&&&*..%*..%*..%&&&&*. @",
"..$.&..%&%%%*..%&.%.&..%&%%%*..%&.%.&..%&%%%*. =",
"..$.&.%.&%.%*..%&%%.&.%.&%.%*..%&%%.&.%.&%.%*.#=",
" .$%&%..&..%*..%&%%%&%..&..%*..%&%%%&%..&..%*.#=",
" .$&*%..&.%.&%..&&&&*%..&.%.&%..&&&&*%..&.%.&+-@",
".+$%*...&%..&%%.&%.%*...&%..&%%.&%.%*...&%..&+.@",
"+-$%*.$$$$$$&%..&..%*...&...&%..&..%*...&...&..@",
"-.$%*.$>,>>$&..%&..%*...*%.%&..%&..%*...*%.%&..@",
"..$%*.$,,,,$&&&&&..%*.%.*%.%&&&&&..%*.%.*%.%&. @",
"..$%*.$>,,,$*%..&%.%*.%.&%..*%..&%.%*.%.&%..*. @",
".+$%&%$>,,,$*.%.*%.%&%%.&%..*.%.*%.%&%%.&%..*.#=",
"..$%&%$$$$$$&...*%.%&%%%&%..&...*%.%&%%%&%..&.#=",
"..$%&&&&*%..&..%&..%&&&&*%..&..%&..%&&&&*%..&+-@",
"..$%&%%%*%..&%.%&..%&%%%*%..&%.%&..%&%%%*%..&+.@",
" .$%&%.%*%..&%.%&..%&%.%*%..&%.%&..%&%.%*%..&..@",
" .$%&..%&%%%&%.%*..%&..%&%%%&%.%*..%&..%&%%%&..@",
".+$%*..%&&&&*..%*..%*..%&&&&*..%*..%*..%&&&&*. @",
".+$.&..%&%%%*..%&.%.&..%&%%%*..%&.%.&..%&%%%*. @",
"..$.&.%.&%.%*..%&%%.&.%.&%.%*..%&%%.&.%.&%.%*.#=",
"..$%&%..&..%*..%&%%%&%..&..%*..%&%%%&%..&..%*+-@",
"..$&*%..&.%.&%..&&&&*%..&.%.&%..&&&&*%..&.%.&+.@",
" .$%*...&%..&%%.&%.%*...&%..&%%.&%.%*...&%..&..@",
" .$%*...&...&%..&..%*...&...&%..&..%*...&...&..@",
".+$%*...*%.%&..%&..%*...*%.%&..%&..%*...*%.%&. @",
"+-$%*.%.*%.%&&&&&..%*.%.*%.%&&&&&..%*.%.*%.%&. @",
"-.$%*.%.&%..*%..&%.%*.%.&%..*%..&%.%*.%.&%..*++@",
"..$%&%%.&%..*.%.*%.%&%%.&%..*.%.*%.%&%%.&%..*. @",
"..$%&%%%&%..&...*%.%&%%%&%..&...*%.%&%%%&%..&. =",
"..$%&&&&*%..&..%&..%&&&&*%..&..%&..%&&&&*%..&.#=",
" .$%&%%%*%..&%.%&..%&%%%*%..&%.%&..%&%%%*%..&.#=",
" .$%&%.%*%..&%.%&..%&%.%*%..&%.%&..%&%.%*%..&+-@",
".+$%&..%&%%%&%.%*..%&..%&%%%&%.%*..%&..%&%%%&+.@",
"+-$%*..%&&&&*..%*..%*..%&&&&*..%*..%*..%&&&&*..@",
"-.$.&..%&%%%*..%&.%.&..%&%%%*..%&.%.&..%&%%%*..@",
"..$.&.%.&%.%*..%&%%.&.%.&%.%*..%&%%.&.%.&%.%*. @",
"..$%&%..&..%*..%&%%%&%..&..%*..%&%%%&%..&..%*. @",
"  ......  .. ......  .......  ..........  .. ..@",
" ...  ......#..  .......  ......  ..  ......#.+=",
"'$'''$$$$$''''''$$$$$''''$$$$$'''$$''$$$$$'''''$"};
