/* XPM */
static char * door3_xpm[] = {
"48 64 18 1",
" 	c #DAB98D",
".	c #EDCC9D",
"+	c #E6C597",
"@	c #AF9271",
"#	c #D3B48A",
"$	c #877058",
"%	c #F6D7A4",
"&	c #C5A984",
"*	c #ECCB9C",
"=	c #D0B089",
"-	c #9F8567",
";	c #E1C093",
">	c #C29F78",
",	c #B1926F",
"'	c #BD9E79",
")	c #CBAD85",
"!	c #D1B389",
"~	c #977E62",
"  ... .. ..  .   .. ..  .. .. ..  ... .. ..  +.@",
"+ #.. .  ...+..+ .  ...+.. .  ...+#.. .  ...+ .@",
".+$$$$$$$$$$$$$$$$$$$$$$$$$$$$$$$$$$$$$$$$$$$++@",
"..$%&%%*&%**=*%*=%*%&%%*&%**=*%*=%*%&%%*&%**=++@",
"..$%&%%%&%**&***=%*%&%%%&%**&***=%*%&%%%&%**&. @",
"..$%&&&&=%**&**%&**%&&&&=%**&**%&**%&&&&=%**&. -",
" .$%&%%%=%**&%*%&**%&%%%=%**&%*%&**%&%%%=%**&.#-",
" .$%&%*%=%**&%*%&**%&%*%=%**&%*%&**%&%*%=%**&.#-",
".+$%&**%&%%%&%*%=**%&**%&%%%&%*%=**%&**%&%%%&++@",
"+;$%=**%&&&&=**%=**%=**%&&&&=**%=**%=**%&&&&=. @",
";.$*&**%&%%%=**%&*%*&**%&%%%=**%&*%*&**%&%%%=. -",
"..$*&*%*&%*%=**%&%%*&*%*&%*%=**%&%%*&*%*&%*%=.#-",
"..$%&%**&**%=**%&%%$$$$$$$$$$$*%&%%%&%**&**%=.#-",
".+$&=%**&*%*&%**&&&$>@$>>$>@$>**&&&&=%**&*%*&+;@",
"..$%=***&%**&%%*&%*$>@$>>$>@$>%*&%*%=***&%**&+.@",
"..$%=***&***&%**&**$>@$@>$@@$@**&**%=***&***&..@",
"..$%=***=%*%&**%&**$@@$@@$@@$@*%&**%=***=%*%&..@",
" .$%=*%*=%*%&&&&&**$@@$@@$@@$@&&&**%=*%*=%*%&. @",
" .$%=*%*&%**=%**&%*$@@$@>$@@$@**&%*%=*%*&%**=. @",
".+$%&%%*&%**=*%*=%*$@>$@>$@@$@%*=%*%&%%*&%**=.#-",
"+;$%&%%%&%**&***=%*$@>$@@$@>$@**=%*%&%%%&%**&+;@",
";.$%&&&&=%**&**%&**$@>$@@$@>$>*%&**%&&&&=%**&+.@",
"..$%&%%%=%**&%*%&**$@>$@@$@>$>*%&**%&%%%=%**&..@",
"..$%&%*%=%**&%*%&**%&%*%=%**&%*%&**%&%*%=%**&..@",
".+$%&**%&%%%&%*%=**%&**%&%%%&%*%=**%&**%&%%%&. @",
"..$%=**%&&&&=**%=**%=**%&&&&=**%=**%=**%&&&&=. @",
"..$*&**%&%%%=**%&*%*&**%&%%%=**%&*%*&**%&%%%=. -",
"..$*&*%*&%*%=**%&%%*&*%*&%*%=**%&%%*&*%*&%*%=.#-",
" .$%&%**&**%=**%&%%%&%**&**%=**%&%%%&%**&**%=.#-",
" .$&=%**&*%*&%**&&&&=%**&*%*&%**&&&&=%**&*%*&+;@",
".+$%=***&%**&%%*&%*%=***&%**&%%*&%*%=***&%**&+.@",
"+;$%=*,,,,,,&%**&**%=***&***&%**&**%=***&***&..@",
";.$%=*')!)),&**%&**%=***=%*%&**%&**%=***=%*%&..@",
"..$%=*'!!!!,&&&&&**%=*%*=%*%&&&&&**%=*%*=%*%&. @",
"..$%=*')!!!,=%**&%*%=*%*&%**=%**&%*%=*%*&%**=. @",
".+$%&%')!!!,=*%*=%*%&%%*&%**=*%*=%*%&%%*&%**=.#-",
"..$%&%''''',&***=%*%&%%%&%**&***=%*%&%%%&%**&.#-",
"..$%&&&&=%**&**%&**%&&&&=%**&**%&**%&&&&=%**&+;@",
"..$%&%%%=%**&%*%&**%&%%%=%**&%*%&**%&%%%=%**&+.@",
" .$%&%*%=%**&%*%&**%&%*%=%**&%*%&**%&%*%=%**&..@",
" .$%&**%&%%%&%*%=**%&**%&%%%&%*%=**%&**%&%%%&..@",
".+$%=**%&&&&=**%=**%=**%&&&&=**%=**%=**%&&&&=. @",
".+$*&**%&%%%=**%&*%*&**%&%%%=**%&*%*&**%&%%%=. @",
"..$*&*%*&%*%=**%&%%*&*%*&%*%=**%&%%*&*%*&%*%=.#-",
"..$%&%**&**%=**%&%%%&%**&**%=**%&%%%&%**&**%=+;@",
"..$&=%**&*%*&%**&&&&=%**&*%*&%**&&&&=%**&*%*&+.@",
" .$%=***&%**&%%*&%*%=***&%**&%%*&%*%=***&%**&..@",
" .$%=***&***&%**&**%=***&***&%**&**%=***&***&..@",
".+$%=***=%*%&**%&**%=***=%*%&**%&**%=***=%*%&. @",
"+;$%=*%*=%*%&&&&&**%=*%*=%*%&&&&&**%=*%*=%*%&. @",
";.$%=*%*&%**=%**&%*%=*%*&%**=%**&%*%=*%*&%**=++@",
"..$%&%%*&%**=*%*=%*%&%%*&%**=*%*=%*%&%%*&%**=. @",
"..$%&%%%&%**&***=%*%&%%%&%**&***=%*%&%%%&%**&. -",
"..$%&&&&=%**&**%&**%&&&&=%**&**%&**%&&&&=%**&.#-",
" .$%&%%%=%**&%*%&**%&%%%=%**&%*%&**%&%%%=%**&.#-",
" .$%&%*%=%**&%*%&**%&%*%=%**&%*%&**%&%*%=%**&+;@",
".+$%&**%&%%%&%*%=**%&**%&%%%&%*%=**%&**%&%%%&+.@",
"+;$%=**%&&&&=**%=**%=**%&&&&=**%=**%=**%&&&&=..@",
";.$*&**%&%%%=**%&*%*&**%&%%%=**%&*%*&**%&%%%=..@",
"..$*&*%*&%*%=**%&%%*&*%*&%*%=**%&%%*&*%*&%*%=. @",
"..$%&%**&**%=**%&%%%&%**&**%=**%&%%%&%**&**%=. @",
"  ......  .. ......  .......  ..........  .. ..@",
" ...  ......#..  .......  ......  ..  ......#.+-",
"~$~~~$$$$$~~~~~~$$$$$~~~~$$$$$~~~$$~~$$$$$~~~~~$"};
