/* XPM */
static char *a6fd2b43fbf14a9ba5d56e1b718259373pBCcVGqdm4VWFyn[] = {
/* columns rows colors chars-per-pixel */
"8 8 2 1 ",
"  c #000000",
". c #ED1C24",
/* pixels */
"   ..   ",
"   ..   ",
"  ....  ",
"  ....  ",
" ...... ",
" ...... ",
"........",
"........"
};
