/* XPM */
static char * player_W_xpm[] = {
"8 8 2 1",
" 	c #000000",
".	c #ED1C24",
"..      ",
"....    ",
"......  ",
"........",
"........",
"......  ",
"....    ",
"..      "};
